<svg width="16" height="16" viewBox="0 0 16 16" fill="none" xmlns="http://www.w3.org/2000/svg">
<path fill-rule="evenodd" clip-rule="evenodd" d="M10.2761 0.666748H3.33333C2.59695 0.666748 2 1.2637 2 2.00008V14.0001C2 14.7365 2.59695 15.3334 3.33333 15.3334H12.6667C13.403 15.3334 14 14.7365 14 14.0001V4.39061L10.2761 0.666748ZM3.33333 2.00008H8.66667V4.66675C8.66667 5.40313 9.26362 6.00008 10 6.00008H12.6667V14.0001H3.33333V2.00008ZM10 4.66675V2.27622L12.3905 4.66675H10ZM8.66666 12.0001V8.94289L9.52859 9.80482L10.4714 8.86201L8 6.39061L5.52859 8.86201L6.4714 9.80482L7.33333 8.94289V12.0001H8.66666Z" fill="white"/>
</svg>
