<svg width="38" height="42" viewBox="0 0 38 42" fill="none" xmlns="http://www.w3.org/2000/svg">
<path d="M26.1666 20.4502L28.087 19.3451C27.5987 18.5061 26.8982 17.8095 26.0554 17.3247C25.2126 16.8399 24.2569 16.5839 23.2838 16.5823H18.698C20.4207 15.6351 21.7786 14.144 22.5581 12.3435C23.3375 10.5429 23.4942 8.53522 23.0036 6.6362C22.513 4.73719 21.4028 3.05465 19.8478 1.8533C18.2928 0.65196 16.3812 0 14.4138 0C12.4464 0 10.5348 0.65196 8.97979 1.8533C7.42479 3.05465 6.31464 4.73719 5.82401 6.6362C5.33338 8.53522 5.4901 10.5429 6.26953 12.3435C7.04897 14.144 8.40686 15.6351 10.1296 16.5823H5.54377C4.07401 16.584 2.66495 17.1667 1.62568 18.2026C0.5864 19.2385 0.00176054 20.6429 0 22.1079V42H2.21751V22.1079C2.21751 21.2286 2.56795 20.3853 3.19175 19.7636C3.81554 19.1418 4.66159 18.7925 5.54377 18.7925H23.2838C23.8678 18.7935 24.4413 18.9471 24.9471 19.2379C25.453 19.5288 25.8734 19.9468 26.1666 20.4502ZM7.76128 8.84644C7.76128 7.535 8.15144 6.25302 8.88243 5.16261C9.61342 4.07219 10.6524 3.22232 11.868 2.72045C13.0836 2.21859 14.4212 2.08728 15.7116 2.34313C17.0021 2.59898 18.1875 3.23049 19.1178 4.15781C20.0482 5.08513 20.6818 6.26662 20.9385 7.55285C21.1952 8.83908 21.0634 10.1723 20.5599 11.3839C20.0564 12.5955 19.2037 13.6311 18.1097 14.3597C17.0157 15.0883 15.7295 15.4771 14.4138 15.4771C12.65 15.4754 10.9589 14.7762 9.7117 13.5331C8.46449 12.29 7.76304 10.6045 7.76128 8.84644Z" fill="#3D85C6"/>
<path d="M38 32.1177C38 30.1632 37.4186 28.2525 36.3294 26.6274C35.2401 25.0022 33.6919 23.7356 31.8805 22.9876C30.0691 22.2396 28.076 22.0439 26.153 22.4252C24.2301 22.8066 22.4638 23.7478 21.0774 25.1298C19.691 26.5119 18.7469 28.2728 18.3644 30.1898C17.9819 32.1067 18.1782 34.0938 18.9285 35.8995C19.6788 37.7053 20.9494 39.2487 22.5796 40.3346C24.2098 41.4205 26.1263 42.0001 28.087 42.0001C30.7151 41.9969 33.2346 40.9547 35.093 39.1021C36.9514 37.2494 37.9968 34.7377 38 32.1177Z" fill="#3D85C6"/>
</svg>
