<svg width="20" height="24" viewBox="0 0 20 24" fill="none" xmlns="http://www.w3.org/2000/svg">
<path d="M9.55675 11.5581C12.7522 11.5581 15.3358 8.9745 15.3358 5.77904C15.3358 2.58357 12.7522 0 9.55675 0C6.36128 0 3.77771 2.58357 3.77771 5.77904C3.77771 8.9745 6.36128 11.5581 9.55675 11.5581ZM9.55675 2.03966C11.6304 2.03966 13.2961 3.70538 13.2961 5.77904C13.2961 7.85269 11.6304 9.51841 9.55675 9.51841C7.48309 9.51841 5.81737 7.85269 5.81737 5.77904C5.81737 3.70538 7.48309 2.03966 9.55675 2.03966Z" fill="#2B5F8F"/>
<path d="M1.67001 24H17.4094C17.8513 24 18.2932 23.796 18.5992 23.4901C18.9051 23.1501 19.0751 22.7082 19.0411 22.2323C18.6672 16.8612 14.5879 12.7819 9.5227 12.7819C4.45755 12.7819 0.378227 16.8272 0.00428947 22.2323C-0.0297049 22.7082 0.140267 23.1501 0.446216 23.4901C0.786159 23.83 1.22809 24 1.67001 24ZM9.5567 14.8215C13.3981 14.8215 16.5595 17.847 17.0015 21.9603H2.11194C2.55386 17.881 5.71534 14.8215 9.5567 14.8215Z" fill="#2B5F8F"/>
</svg>
