<svg width="22" height="24" viewBox="0 0 22 24" fill="none" xmlns="http://www.w3.org/2000/svg">
<path fill-rule="evenodd" clip-rule="evenodd" d="M4.68792 10.56C4.68792 7.28 7.27436 4.64 10.5074 4.64C13.7405 4.64 16.3269 7.28 16.3269 10.56C16.3269 12.88 15.0337 14.8 13.0938 15.84V17.76C16.0036 16.72 18.0242 13.92 18.0242 10.64C18.0242 6.4 14.6295 3.04 10.4266 3.04C6.22362 3.04 2.82892 6.48 2.82892 10.64C2.82892 13.92 4.9304 16.72 7.75932 17.76V15.84C5.98114 14.88 4.68792 12.88 4.68792 10.56ZM15.0337 10.56C15.0337 8.08 13.013 6 10.5074 6C8.0018 6 5.98114 8 5.98114 10.56C5.98114 12.48 7.19353 14.16 8.89088 14.8V24H12.1239V14.72C13.8213 14.08 15.0337 12.48 15.0337 10.56ZM10.5074 12.64C9.29502 12.64 8.3251 11.68 8.3251 10.48C8.3251 9.28 9.29502 8.32 10.5074 8.32C11.7198 8.32 12.6897 9.28 12.6897 10.48C12.6897 11.68 11.7198 12.64 10.5074 12.64ZM10.5074 0C4.68792 0 0 4.72 0 10.56C0 15.44 3.3947 19.6 7.92097 20.8V18.96C4.36461 17.84 1.77818 14.48 1.77818 10.56C1.77818 5.68 5.73866 1.76 10.5882 1.76C15.4378 1.76 19.3983 5.76 19.3983 10.56C19.3983 14.48 16.8119 17.84 13.2555 18.96V20.8C17.7818 19.6 21.1765 15.52 21.1765 10.56C21.0148 4.72 16.3269 0 10.5074 0Z" fill="#2B5F8F"/>
</svg>
