<svg width="50" height="46" viewBox="0 0 50 46" fill="none" xmlns="http://www.w3.org/2000/svg">
<path d="M49.3227 44.8362H48.0911V43.2437C48.8916 42.9987 49.4458 42.2636 49.4458 41.4674C49.4458 40.4261 48.5837 39.5686 47.5369 39.5686C46.4901 39.5686 45.6281 40.4261 45.6281 41.4674C45.6281 42.2636 46.1207 42.9374 46.8596 43.2437V44.8975H43.5345V43.3049C44.5813 43.0599 45.3818 42.0799 45.3818 40.9774C45.3818 40.1811 45.0123 39.5073 44.3965 39.0786C44.766 38.7111 44.9507 38.221 44.9507 37.6698C44.9507 36.5672 44.0271 35.6485 42.9187 35.6485C41.8103 35.6485 40.8867 36.5672 40.8867 37.6698C40.8867 38.221 41.133 38.7111 41.4409 39.0786C40.8251 39.5073 40.4557 40.2423 40.4557 40.9774C40.4557 42.0799 41.1946 42.9987 42.1798 43.3049V44.8975H39.8399V9.67776C39.8399 9.31025 39.5936 9.06525 39.2241 9.06525H38.9163C38.7315 8.02397 38.0542 7.10519 37.3153 6.67643C37.2537 5.3289 36.3916 4.16511 35.4064 4.16511H34.7291V0.612517C34.7291 0.245007 34.4828 0 34.1133 0C33.7438 0 33.4975 0.245007 33.4975 0.612517V4.16511H32.8202C31.8965 4.16511 31.0345 5.39015 30.9113 6.67643C30.1724 7.10519 29.4951 8.02397 29.3103 9.06525H29.0025C28.633 9.06525 28.3867 9.31025 28.3867 9.67776V17.9467H23.4606V12.0666C23.4606 11.6991 23.2143 11.4541 22.8448 11.4541H12.9926C12.6232 11.4541 12.3768 11.6991 12.3768 12.0666V22.1119H11.2685L10.7759 15.8029C10.7759 15.4967 10.468 15.2517 10.1601 15.2517H8.62069C8.31281 15.2517 8.00493 15.4967 8.00493 15.8029L7.57389 22.1119H7.08128C6.71182 22.1119 6.46552 22.3569 6.46552 22.7244V44.8362H3.01724V43.1824C4.12562 42.9374 4.92611 41.9574 4.92611 40.7936C4.92611 39.9973 4.55665 39.2623 3.94089 38.8336C4.31034 38.466 4.55665 37.976 4.55665 37.3635C4.55665 36.261 3.633 35.281 2.46305 35.281C1.2931 35.281 0.369458 36.1997 0.369458 37.3635C0.369458 37.9148 0.615764 38.466 0.985222 38.8336C0.369458 39.2623 0 39.9973 0 40.7936C0 41.8961 0.738917 42.8762 1.78571 43.1212V44.775H0.738916C0.369458 44.775 0.123153 45.02 0.123153 45.3875C0.123153 45.755 0.369458 46 0.738916 46H49.3842C49.7537 46 50 45.755 50 45.3875C50 45.02 49.6921 44.8362 49.3227 44.8362ZM41.7488 40.9161C41.7488 40.2423 42.303 39.7523 42.9187 39.7523C43.5345 39.7523 44.0887 40.3036 44.0887 40.9161C44.0887 41.5286 43.5961 42.0799 42.9803 42.0799C42.3645 42.0799 41.7488 41.5899 41.7488 40.9161ZM1.16995 40.7936C1.16995 40.1198 1.72414 39.5686 2.40148 39.5686C3.07882 39.5686 3.633 40.1198 3.633 40.7936C3.633 41.4674 3.07882 42.0186 2.40148 42.0186C1.72414 42.0186 1.16995 41.4674 1.16995 40.7936ZM33.0665 5.39015H35.5911C35.7143 5.4514 36.0837 5.81891 36.2069 6.37017H32.5123C32.5739 5.81891 32.9433 5.4514 33.0665 5.39015ZM32.2044 7.59521H36.3916C36.8227 7.59521 37.5616 8.20772 37.8079 9.06525H30.7882C31.0961 8.20772 31.835 7.59521 32.2044 7.59521ZM29.8645 10.2903H38.7315V44.775H34.9138V18.5593C34.9138 18.1917 34.6675 17.9467 34.298 17.9467H29.8645V10.2903ZM33.6823 19.1718V44.8362H31.0345V42.0186C31.0345 40.7324 29.9877 39.6911 28.6946 39.6911C27.4015 39.6911 26.3547 40.7324 26.3547 42.0186V44.8362H23.7069V19.1718H33.6823ZM29.803 44.8362H27.6478V42.0186C27.6478 41.4061 28.1404 40.9161 28.7562 40.9161C29.3719 40.9161 29.8645 41.4061 29.8645 42.0186V44.8362H29.803ZM13.6084 12.6791H22.4754V44.775H18.7808V22.7244C18.7808 22.3569 18.5345 22.1119 18.165 22.1119H13.6084V12.6791ZM9.17488 16.4767H9.60591L10.0369 22.1119H8.80542L9.17488 16.4767ZM7.69704 23.3369H17.6108V44.8362H14.7167V42.0186C14.7167 40.7324 13.6699 39.6911 12.3768 39.6911C11.0837 39.6911 10.0369 40.7324 10.0369 42.0186V44.8362H7.63547V23.3369H7.69704ZM13.4852 44.8362H11.33V42.0186C11.33 41.4061 11.8227 40.9161 12.4384 40.9161C13.0542 40.9161 13.5468 41.4061 13.5468 42.0186V44.8362H13.4852Z" fill="#3D85C6"/>
<path d="M10.1601 27.2569C10.5296 27.2569 10.7759 27.0119 10.7759 26.6444V25.7868C10.7759 25.4193 10.5296 25.1743 10.1601 25.1743C9.79065 25.1743 9.54434 25.4193 9.54434 25.7868V26.6444C9.54434 26.9506 9.79065 27.2569 10.1601 27.2569Z" fill="#3D85C6"/>
<path d="M12.6231 27.2569C12.9926 27.2569 13.2389 27.0119 13.2389 26.6444V25.7868C13.2389 25.4193 12.9926 25.1743 12.6231 25.1743C12.2537 25.1743 12.0074 25.4193 12.0074 25.7868V26.6444C12.0074 26.9506 12.3153 27.2569 12.6231 27.2569Z" fill="#3D85C6"/>
<path d="M15.1478 27.2569C15.5172 27.2569 15.7635 27.0119 15.7635 26.6444V25.7868C15.7635 25.4193 15.5172 25.1743 15.1478 25.1743C14.7783 25.1743 14.532 25.4193 14.532 25.7868V26.6444C14.532 26.9506 14.7783 27.2569 15.1478 27.2569Z" fill="#3D85C6"/>
<path d="M10.1601 30.6871C10.5296 30.6871 10.7759 30.442 10.7759 30.0745V29.217C10.7759 28.8495 10.5296 28.6045 10.1601 28.6045C9.79065 28.6045 9.54434 28.8495 9.54434 29.217V30.0745C9.54434 30.442 9.79065 30.6871 10.1601 30.6871Z" fill="#3D85C6"/>
<path d="M12.6231 30.6871C12.9926 30.6871 13.2389 30.442 13.2389 30.0745V29.217C13.2389 28.8495 12.9926 28.6045 12.6231 28.6045C12.2537 28.6045 12.0074 28.8495 12.0074 29.217V30.0745C12.0074 30.442 12.3153 30.6871 12.6231 30.6871Z" fill="#3D85C6"/>
<path d="M15.1478 30.6871C15.5172 30.6871 15.7635 30.442 15.7635 30.0745V29.217C15.7635 28.8495 15.5172 28.6045 15.1478 28.6045C14.7783 28.6045 14.532 28.8495 14.532 29.217V30.0745C14.532 30.442 14.7783 30.6871 15.1478 30.6871Z" fill="#3D85C6"/>
<path d="M10.1601 34.1788C10.5296 34.1788 10.7759 33.9337 10.7759 33.5662V32.7087C10.7759 32.3412 10.5296 32.0962 10.1601 32.0962C9.79065 32.0962 9.54434 32.3412 9.54434 32.7087V33.5662C9.54434 33.8725 9.79065 34.1788 10.1601 34.1788Z" fill="#3D85C6"/>
<path d="M12.6231 34.1788C12.9926 34.1788 13.2389 33.9337 13.2389 33.5662V32.7087C13.2389 32.3412 12.9926 32.0962 12.6231 32.0962C12.2537 32.0962 12.0074 32.3412 12.0074 32.7087V33.5662C12.0074 33.8725 12.3153 34.1788 12.6231 34.1788Z" fill="#3D85C6"/>
<path d="M15.1478 34.1788C15.5172 34.1788 15.7635 33.9337 15.7635 33.5662V32.7087C15.7635 32.3412 15.5172 32.0962 15.1478 32.0962C14.7783 32.0962 14.532 32.3412 14.532 32.7087V33.5662C14.532 33.8725 14.7783 34.1788 15.1478 34.1788Z" fill="#3D85C6"/>
<path d="M10.1601 37.6084C10.5296 37.6084 10.7759 37.3634 10.7759 36.9959V36.1384C10.7759 35.7709 10.5296 35.5259 10.1601 35.5259C9.79065 35.5259 9.54434 35.7709 9.54434 36.1384V36.9959C9.54434 37.3634 9.79065 37.6084 10.1601 37.6084Z" fill="#3D85C6"/>
<path d="M12.6231 37.6084C12.9926 37.6084 13.2389 37.3634 13.2389 36.9959V36.1384C13.2389 35.7709 12.9926 35.5259 12.6231 35.5259C12.2537 35.5259 12.0074 35.7709 12.0074 36.1384V36.9959C12.0074 37.3634 12.3153 37.6084 12.6231 37.6084Z" fill="#3D85C6"/>
<path d="M15.1478 37.6084C15.5172 37.6084 15.7635 37.3634 15.7635 36.9959V36.1384C15.7635 35.7709 15.5172 35.5259 15.1478 35.5259C14.7783 35.5259 14.532 35.7709 14.532 36.1384V36.9959C14.532 37.3634 14.7783 37.6084 15.1478 37.6084Z" fill="#3D85C6"/>
<path d="M26.2315 23.9496C26.601 23.9496 26.8473 23.7046 26.8473 23.3371V22.2346C26.8473 21.8671 26.601 21.6221 26.2315 21.6221C25.8621 21.6221 25.6158 21.8671 25.6158 22.2346V23.3371C25.6158 23.6434 25.9236 23.9496 26.2315 23.9496Z" fill="#3D85C6"/>
<path d="M28.7562 23.9496C29.1256 23.9496 29.3719 23.7046 29.3719 23.3371V22.2346C29.3719 21.8671 29.1256 21.6221 28.7562 21.6221C28.3867 21.6221 28.1404 21.8671 28.1404 22.2346V23.3371C28.1404 23.6434 28.3867 23.9496 28.7562 23.9496Z" fill="#3D85C6"/>
<path d="M31.2192 23.9496C31.5887 23.9496 31.835 23.7046 31.835 23.3371V22.2346C31.835 21.8671 31.5887 21.6221 31.2192 21.6221C30.8498 21.6221 30.6035 21.8671 30.6035 22.2346V23.3371C30.6035 23.6434 30.9113 23.9496 31.2192 23.9496Z" fill="#3D85C6"/>
<path d="M26.2315 28.5434C26.601 28.5434 26.8473 28.2984 26.8473 27.9309V26.8283C26.8473 26.4608 26.601 26.2158 26.2315 26.2158C25.8621 26.2158 25.6158 26.4608 25.6158 26.8283V27.9309C25.6158 28.2371 25.9236 28.5434 26.2315 28.5434Z" fill="#3D85C6"/>
<path d="M28.7562 28.5434C29.1256 28.5434 29.3719 28.2984 29.3719 27.9309V26.8283C29.3719 26.4608 29.1256 26.2158 28.7562 26.2158C28.3867 26.2158 28.1404 26.4608 28.1404 26.8283V27.9309C28.1404 28.2371 28.3867 28.5434 28.7562 28.5434Z" fill="#3D85C6"/>
<path d="M31.2192 28.5434C31.5887 28.5434 31.835 28.2984 31.835 27.9309V26.8283C31.835 26.4608 31.5887 26.2158 31.2192 26.2158C30.8498 26.2158 30.6035 26.4608 30.6035 26.8283V27.9309C30.6035 28.2371 30.9113 28.5434 31.2192 28.5434Z" fill="#3D85C6"/>
<path d="M26.2315 33.1371C26.601 33.1371 26.8473 32.8921 26.8473 32.5246V31.4221C26.8473 31.0546 26.601 30.8096 26.2315 30.8096C25.8621 30.8096 25.6158 31.0546 25.6158 31.4221V32.5246C25.6158 32.8921 25.9236 33.1371 26.2315 33.1371Z" fill="#3D85C6"/>
<path d="M28.7562 33.1371C29.1256 33.1371 29.3719 32.8921 29.3719 32.5246V31.4221C29.3719 31.0546 29.1256 30.8096 28.7562 30.8096C28.3867 30.8096 28.1404 31.0546 28.1404 31.4221V32.5246C28.1404 32.8921 28.3867 33.1371 28.7562 33.1371Z" fill="#3D85C6"/>
<path d="M31.2192 33.1371C31.5887 33.1371 31.835 32.8921 31.835 32.5246V31.4221C31.835 31.0546 31.5887 30.8096 31.2192 30.8096C30.8498 30.8096 30.6035 31.0546 30.6035 31.4221V32.5246C30.6035 32.8921 30.9113 33.1371 31.2192 33.1371Z" fill="#3D85C6"/>
<path d="M26.2315 37.7314C26.601 37.7314 26.8473 37.4864 26.8473 37.1189V36.0163C26.8473 35.6488 26.601 35.4038 26.2315 35.4038C25.8621 35.4038 25.6158 35.6488 25.6158 36.0163V37.1189C25.6158 37.4864 25.9236 37.7314 26.2315 37.7314Z" fill="#3D85C6"/>
<path d="M28.7562 37.7314C29.1256 37.7314 29.3719 37.4864 29.3719 37.1189V36.0163C29.3719 35.6488 29.1256 35.4038 28.7562 35.4038C28.3867 35.4038 28.1404 35.6488 28.1404 36.0163V37.1189C28.1404 37.4864 28.3867 37.7314 28.7562 37.7314Z" fill="#3D85C6"/>
<path d="M31.2192 37.7314C31.5887 37.7314 31.835 37.4864 31.835 37.1189V36.0163C31.835 35.6488 31.5887 35.4038 31.2192 35.4038C30.8498 35.4038 30.6035 35.6488 30.6035 36.0163V37.1189C30.6035 37.4864 30.9113 37.7314 31.2192 37.7314Z" fill="#3D85C6"/>
<path d="M31.835 11.3931C31.4655 11.3931 31.2192 11.6381 31.2192 12.0056V12.8631C31.2192 13.2306 31.4655 13.4756 31.835 13.4756C32.2044 13.4756 32.4507 13.2306 32.4507 12.8631V12.0056C32.4507 11.6381 32.1429 11.3931 31.835 11.3931Z" fill="#3D85C6"/>
<path d="M34.298 13.4141C34.6675 13.4141 34.9138 13.1691 34.9138 12.8016V11.9441C34.9138 11.5765 34.6675 11.3315 34.298 11.3315C33.9286 11.3315 33.6823 11.5765 33.6823 11.9441V12.8016C33.6823 13.1691 33.9902 13.4141 34.298 13.4141Z" fill="#3D85C6"/>
<path d="M36.8226 13.4141C37.1921 13.4141 37.4384 13.1691 37.4384 12.8016V11.9441C37.4384 11.5765 37.1921 11.3315 36.8226 11.3315C36.4532 11.3315 36.2069 11.5765 36.2069 11.9441V12.8016C36.2069 13.1691 36.4532 13.4141 36.8226 13.4141Z" fill="#3D85C6"/>
<path d="M31.835 14.7617C31.4655 14.7617 31.2192 15.0067 31.2192 15.3742V16.2318C31.2192 16.5993 31.4655 16.8443 31.835 16.8443C32.2044 16.8443 32.4507 16.5993 32.4507 16.2318V15.3742C32.4507 15.068 32.1429 14.7617 31.835 14.7617Z" fill="#3D85C6"/>
<path d="M34.9138 16.2318V15.3742C34.9138 15.0067 34.6675 14.7617 34.298 14.7617C33.9286 14.7617 33.6823 15.0067 33.6823 15.3742V16.2318C33.6823 16.5993 33.9286 16.8443 34.298 16.8443C34.6675 16.8443 34.9138 16.5993 34.9138 16.2318Z" fill="#3D85C6"/>
<path d="M36.8226 16.8443C37.1921 16.8443 37.4384 16.5993 37.4384 16.2318V15.3742C37.4384 15.0067 37.1921 14.7617 36.8226 14.7617C36.4532 14.7617 36.2069 15.0067 36.2069 15.3742V16.2318C36.2069 16.5993 36.4532 16.8443 36.8226 16.8443Z" fill="#3D85C6"/>
<path d="M36.8226 20.2745C37.1921 20.2745 37.4384 20.0294 37.4384 19.6619V18.8044C37.4384 18.4369 37.1921 18.1919 36.8226 18.1919C36.4532 18.1919 36.2069 18.4369 36.2069 18.8044V19.6619C36.2069 20.0294 36.4532 20.2745 36.8226 20.2745Z" fill="#3D85C6"/>
<path d="M36.8226 23.7046C37.1921 23.7046 37.4384 23.4596 37.4384 23.0921V22.2346C37.4384 21.8671 37.1921 21.6221 36.8226 21.6221C36.4532 21.6221 36.2069 21.8671 36.2069 22.2346V23.0921C36.2069 23.3984 36.4532 23.7046 36.8226 23.7046Z" fill="#3D85C6"/>
<path d="M36.8226 27.1348C37.1921 27.1348 37.4384 26.8898 37.4384 26.5223V25.6648C37.4384 25.2973 37.1921 25.0522 36.8226 25.0522C36.4532 25.0522 36.2069 25.2973 36.2069 25.6648V26.5223C36.2069 26.8285 36.4532 27.1348 36.8226 27.1348Z" fill="#3D85C6"/>
<path d="M36.8226 30.5645C37.1921 30.5645 37.4384 30.3195 37.4384 29.952V29.0945C37.4384 28.7269 37.1921 28.4819 36.8226 28.4819C36.4532 28.4819 36.2069 28.7269 36.2069 29.0945V29.952C36.2069 30.2582 36.4532 30.5645 36.8226 30.5645Z" fill="#3D85C6"/>
<path d="M36.8226 33.8726C37.1921 33.8726 37.4384 33.6276 37.4384 33.2601V32.4026C37.4384 32.035 37.1921 31.79 36.8226 31.79C36.4532 31.79 36.2069 32.035 36.2069 32.4026V33.2601C36.2069 33.6276 36.4532 33.8726 36.8226 33.8726Z" fill="#3D85C6"/>
<path d="M36.8226 37.3023C37.1921 37.3023 37.4384 37.0573 37.4384 36.6898V35.8322C37.4384 35.4647 37.1921 35.2197 36.8226 35.2197C36.4532 35.2197 36.2069 35.4647 36.2069 35.8322V36.6898C36.2069 37.0573 36.4532 37.3023 36.8226 37.3023Z" fill="#3D85C6"/>
<path d="M36.8226 40.7325C37.1921 40.7325 37.4384 40.4875 37.4384 40.1199V39.2624C37.4384 38.8949 37.1921 38.6499 36.8226 38.6499C36.4532 38.6499 36.2069 38.8949 36.2069 39.2624V40.1199C36.2069 40.4875 36.4532 40.7325 36.8226 40.7325Z" fill="#3D85C6"/>
<path d="M15.702 13.9653C15.3325 13.9653 15.0862 14.2103 15.0862 14.5778V15.2516C15.0862 15.6191 15.3325 15.8641 15.702 15.8641C16.0714 15.8641 16.3177 15.6191 16.3177 15.2516V14.5778C16.3177 14.2716 16.0714 13.9653 15.702 13.9653Z" fill="#3D85C6"/>
<path d="M18.2266 15.8641C18.5961 15.8641 18.8424 15.6191 18.8424 15.2516V14.5778C18.8424 14.2103 18.5961 13.9653 18.2266 13.9653C17.8571 13.9653 17.6108 14.2103 17.6108 14.5778V15.2516C17.6108 15.5579 17.8571 15.8641 18.2266 15.8641Z" fill="#3D85C6"/>
<path d="M20.6896 15.8641C21.0591 15.8641 21.3054 15.6191 21.3054 15.2516V14.5778C21.3054 14.2103 21.0591 13.9653 20.6896 13.9653C20.3202 13.9653 20.0739 14.2103 20.0739 14.5778V15.2516C20.0739 15.5579 20.3818 15.8641 20.6896 15.8641Z" fill="#3D85C6"/>
<path d="M15.702 16.6606C15.3325 16.6606 15.0862 16.9057 15.0862 17.2732V17.9469C15.0862 18.3144 15.3325 18.5594 15.702 18.5594C16.0714 18.5594 16.3177 18.3144 16.3177 17.9469V17.2732C16.3177 16.9057 16.0714 16.6606 15.702 16.6606Z" fill="#3D85C6"/>
<path d="M18.2266 18.4979C18.5961 18.4979 18.8424 18.2529 18.8424 17.8854V17.2116C18.8424 16.8441 18.5961 16.5991 18.2266 16.5991C17.8571 16.5991 17.6108 16.8441 17.6108 17.2116V17.8854C17.6108 18.2529 17.8571 18.4979 18.2266 18.4979Z" fill="#3D85C6"/>
<path d="M20.6896 18.4979C21.0591 18.4979 21.3054 18.2529 21.3054 17.8854V17.2116C21.3054 16.8441 21.0591 16.5991 20.6896 16.5991C20.3202 16.5991 20.0739 16.8441 20.0739 17.2116V17.8854C20.0739 18.2529 20.3818 18.4979 20.6896 18.4979Z" fill="#3D85C6"/>
<path d="M15.702 19.2944C15.3325 19.2944 15.0862 19.5394 15.0862 19.907V20.5807C15.0862 20.9482 15.3325 21.1932 15.702 21.1932C16.0714 21.1932 16.3177 20.9482 16.3177 20.5807V19.907C16.3177 19.6007 16.0714 19.2944 15.702 19.2944Z" fill="#3D85C6"/>
<path d="M18.8424 20.5807V19.907C18.8424 19.5394 18.5961 19.2944 18.2266 19.2944C17.8571 19.2944 17.6108 19.5394 17.6108 19.907V20.5807C17.6108 20.9482 17.8571 21.1932 18.2266 21.1932C18.5961 21.1932 18.8424 20.887 18.8424 20.5807Z" fill="#3D85C6"/>
<path d="M20.6896 21.1932C21.0591 21.1932 21.3054 20.9482 21.3054 20.5807V19.907C21.3054 19.5394 21.0591 19.2944 20.6896 19.2944C20.3202 19.2944 20.0739 19.5394 20.0739 19.907V20.5807C20.0739 20.887 20.3818 21.1932 20.6896 21.1932Z" fill="#3D85C6"/>
<path d="M20.6896 24.1332C21.0591 24.1332 21.3054 23.8882 21.3054 23.5207V22.8469C21.3054 22.4794 21.0591 22.2344 20.6896 22.2344C20.3202 22.2344 20.0739 22.4794 20.0739 22.8469V23.5207C20.0739 23.8882 20.3818 24.1332 20.6896 24.1332Z" fill="#3D85C6"/>
<path d="M20.6896 26.8285C21.0591 26.8285 21.3054 26.5835 21.3054 26.216V25.5422C21.3054 25.1747 21.0591 24.9297 20.6896 24.9297C20.3202 24.9297 20.0739 25.1747 20.0739 25.5422V26.216C20.0739 26.5222 20.3818 26.8285 20.6896 26.8285Z" fill="#3D85C6"/>
<path d="M20.6896 29.4623C21.0591 29.4623 21.3054 29.2173 21.3054 28.8498V28.176C21.3054 27.8085 21.0591 27.5635 20.6896 27.5635C20.3202 27.5635 20.0739 27.8085 20.0739 28.176V28.8498C20.0739 29.2173 20.3818 29.4623 20.6896 29.4623Z" fill="#3D85C6"/>
<path d="M20.6896 32.1576C21.0591 32.1576 21.3054 31.9126 21.3054 31.5451V30.8713C21.3054 30.5038 21.0591 30.2588 20.6896 30.2588C20.3202 30.2588 20.0739 30.5038 20.0739 30.8713V31.5451C20.0739 31.8513 20.3818 32.1576 20.6896 32.1576Z" fill="#3D85C6"/>
<path d="M20.6896 34.7909C21.0591 34.7909 21.3054 34.5459 21.3054 34.1784V33.5046C21.3054 33.1371 21.0591 32.8921 20.6896 32.8921C20.3202 32.8921 20.0739 33.1371 20.0739 33.5046V34.1784C20.0739 34.5459 20.3818 34.7909 20.6896 34.7909Z" fill="#3D85C6"/>
<path d="M20.6896 37.4862C21.0591 37.4862 21.3054 37.2412 21.3054 36.8737V36.1999C21.3054 35.8324 21.0591 35.5874 20.6896 35.5874C20.3202 35.5874 20.0739 35.8324 20.0739 36.1999V36.8737C20.0739 37.1799 20.3818 37.4862 20.6896 37.4862Z" fill="#3D85C6"/>
<path d="M20.6896 40.12C21.0591 40.12 21.3054 39.875 21.3054 39.5075V38.8337C21.3054 38.4662 21.0591 38.2212 20.6896 38.2212C20.3202 38.2212 20.0739 38.4662 20.0739 38.8337V39.5075C20.0739 39.875 20.3818 40.12 20.6896 40.12Z" fill="#3D85C6"/>
<path d="M7.51233 11.7606C7.51233 12.8019 8.3744 13.6594 9.4212 13.6594C10.468 13.6594 11.3301 12.8019 11.3301 11.7606C11.3301 10.7193 10.468 9.86182 9.4212 9.86182C8.31282 9.86182 7.51233 10.7193 7.51233 11.7606ZM10.0985 11.7606C10.0985 12.1281 9.79065 12.4344 9.4212 12.4344C9.05174 12.4344 8.74386 12.1281 8.74386 11.7606C8.74386 11.3931 9.05174 11.0869 9.4212 11.0869C9.79065 11.0869 10.0985 11.3931 10.0985 11.7606Z" fill="#3D85C6"/>
<path d="M13.4852 9.92318C15.0862 9.92318 16.3793 8.6369 16.3793 7.04436C16.3793 5.45181 15.0862 4.16553 13.4852 4.16553C11.8842 4.16553 10.5911 5.45181 10.5911 7.04436C10.5911 8.6369 11.8842 9.92318 13.4852 9.92318Z" fill="#3D85C6"/>
</svg>
