<svg width="760" height="769" viewBox="0 0 760 769" fill="none" xmlns="http://www.w3.org/2000/svg">
<path d="M339.07 560.656C332.854 560.656 326.911 550.915 324.448 542.699C313.93 544.542 303.728 547.875 294.149 552.597C297.042 560.695 298.372 572.628 292.664 576.071C286.956 579.513 277.26 573.723 271.044 567.855C262.868 574.71 255.707 582.692 249.776 591.563C256.305 597.158 263.42 606.821 260.136 612.533C256.852 618.245 245.593 618.206 237.265 616.21C233.619 626.281 231.421 636.819 230.736 647.508C239.181 649.073 250.284 653.885 250.284 660.458C250.284 667.03 240.549 672.625 232.339 675.09C234.205 685.609 237.534 695.815 242.23 705.41C250.362 702.514 262.286 701.184 265.688 706.896C269.089 712.608 263.342 722.31 257.478 728.531C264.338 736.702 272.313 743.867 281.17 749.814C286.76 743.28 296.417 736.16 302.125 739.446C307.833 742.732 307.794 754 306.034 762.333C316.103 765.966 326.631 768.165 337.311 768.866C338.875 760.416 343.684 749.305 350.252 749.305C356.82 749.305 362.449 759.046 364.873 767.262C375.395 765.412 385.598 762.066 395.172 757.325C392.279 749.227 390.95 737.294 396.658 733.852C402.366 730.409 412.062 736.199 418.278 742.067C426.436 735.194 433.594 727.214 439.546 718.359C433.017 712.725 425.902 703.101 429.186 697.389C432.47 691.678 443.729 691.717 452.057 693.673C455.706 683.603 457.904 673.065 458.586 662.375C450.141 660.81 439.038 655.998 439.038 649.425C439.038 642.853 448.773 637.219 456.983 634.793C455.129 624.271 451.799 614.064 447.091 604.474C438.96 607.369 427.035 608.699 423.634 602.987C420.233 597.275 425.98 587.573 431.844 581.352C424.994 573.171 417.017 566.005 408.152 560.07C402.562 566.603 392.905 573.723 387.197 570.437C381.489 567.151 381.528 555.883 383.522 547.55C373.457 543.906 362.927 541.706 352.245 541.017C350.447 549.663 345.638 560.656 339.07 560.656ZM420.272 654.942C420.295 669.965 415.864 684.659 407.54 697.162C399.216 709.665 387.372 719.416 373.508 725.182C359.644 730.947 344.383 732.468 329.655 729.551C314.927 726.634 301.395 719.411 290.77 708.796C280.146 698.181 272.907 684.65 269.969 669.917C267.032 655.183 268.528 639.909 274.268 626.026C280.008 612.144 289.734 600.277 302.216 591.928C314.697 583.579 329.374 579.122 344.387 579.122C364.496 579.112 383.786 587.093 398.016 601.311C412.246 615.528 420.251 634.819 420.272 654.942Z" fill="#3D85C6"/>
<path d="M643.647 382.34C638.526 382.34 633.631 374.315 631.602 367.547C622.937 369.065 614.533 371.811 606.642 375.701C609.025 382.372 610.12 392.202 605.418 395.038C600.716 397.874 592.729 393.105 587.608 388.27C580.873 393.917 574.974 400.493 570.087 407.801C575.466 412.409 581.327 420.37 578.622 425.075C575.917 429.781 566.641 429.749 559.781 428.105C556.778 436.401 554.967 445.082 554.403 453.888C561.359 455.177 570.506 459.141 570.506 464.555C570.506 469.97 562.487 474.579 555.723 476.609C557.26 485.275 560.003 493.682 563.871 501.586C570.57 499.201 580.393 498.106 583.195 502.811C585.997 507.516 581.263 515.509 576.432 520.633C582.083 527.365 588.654 533.267 595.949 538.166C600.555 532.784 608.51 526.918 613.212 529.625C617.914 532.332 617.882 541.614 616.433 548.479C624.727 551.472 633.4 553.284 642.198 553.861C643.486 546.9 647.447 537.747 652.858 537.747C658.269 537.747 662.907 545.772 664.903 552.54C673.571 551.016 681.976 548.259 689.863 544.354C687.48 537.682 686.385 527.853 691.087 525.016C695.789 522.18 703.777 526.95 708.898 531.784C715.618 526.122 721.515 519.548 726.418 512.254C721.039 507.613 715.178 499.685 717.883 494.979C720.589 490.274 729.864 490.306 736.724 491.918C739.73 483.622 741.541 474.941 742.102 466.135C735.146 464.846 725.999 460.881 725.999 455.467C725.999 450.053 734.019 445.412 740.782 443.413C739.255 434.745 736.512 426.337 732.634 418.436C725.935 420.821 716.112 421.917 713.31 417.212C710.508 412.506 715.242 404.514 720.073 399.389C714.43 392.649 707.859 386.746 700.556 381.857C695.951 387.239 687.995 393.105 683.293 390.397C678.591 387.69 678.623 378.408 680.266 371.544C671.974 368.541 663.3 366.729 654.501 366.161C653.019 373.284 649.058 382.34 643.647 382.34ZM710.54 460.011C710.559 472.388 706.909 484.492 700.052 494.792C693.194 505.092 683.438 513.125 672.017 517.874C660.596 522.624 648.024 523.876 635.891 521.474C623.758 519.071 612.61 513.12 603.858 504.376C595.106 495.631 589.143 484.485 586.723 472.348C584.303 460.21 585.535 447.627 590.264 436.191C594.992 424.755 603.005 414.979 613.287 408.101C623.569 401.223 635.659 397.552 648.027 397.552C664.593 397.544 680.483 404.118 692.206 415.831C703.928 427.543 710.523 443.435 710.54 460.011Z" fill="#3D85C6"/>
<circle cx="650.433" cy="459.509" r="55.2058" fill="white"/>
<path d="M262.835 19.4665C256.674 19.4665 250.783 9.81081 248.342 1.66748C237.917 3.49411 227.804 6.79755 218.31 11.4783C221.178 19.5053 222.495 31.3325 216.837 34.7449C211.18 38.1574 201.569 32.4182 195.408 26.6016C187.304 33.396 180.206 41.3082 174.327 50.1009C180.799 55.6461 187.851 65.2242 184.596 70.8858C181.341 76.5474 170.181 76.5086 161.927 74.5309C158.313 84.513 156.134 94.958 155.456 105.553C163.826 107.104 174.831 111.874 174.831 118.389C174.831 124.903 165.182 130.449 157.044 132.892C158.893 143.318 162.193 153.434 166.848 162.944C174.909 160.075 186.728 158.756 190.099 164.418C193.47 170.079 187.774 179.696 181.961 185.862C188.761 193.961 196.666 201.063 205.445 206.957C210.986 200.481 220.557 193.424 226.215 196.681C231.873 199.938 231.834 211.106 230.09 219.366C240.07 222.967 250.505 225.147 261.091 225.842C262.641 217.466 267.408 206.453 273.918 206.453C280.428 206.453 286.008 216.109 288.411 224.252C298.84 222.418 308.953 219.101 318.443 214.402C315.575 206.375 314.258 194.548 319.916 191.136C325.573 187.723 335.184 193.462 341.345 199.279C349.431 192.466 356.526 184.557 362.426 175.78C355.954 170.196 348.901 160.656 352.156 154.995C355.412 149.333 366.572 149.372 374.826 151.311C378.443 141.33 380.622 130.884 381.297 120.289C372.927 118.738 361.922 113.968 361.922 107.453C361.922 100.939 371.571 95.3546 379.709 92.9504C377.871 82.5208 374.57 72.4032 369.905 62.8976C361.844 65.7671 350.025 67.0856 346.654 61.4241C343.282 55.7625 348.979 46.1456 354.792 39.98C348.002 31.8707 340.095 24.768 331.308 18.8848C325.767 25.3607 316.195 32.4183 310.538 29.1609C304.88 25.9036 304.919 14.7356 306.895 6.47588C296.919 2.86372 286.481 0.683449 275.894 0C274.112 8.56989 269.345 19.4665 262.835 19.4665ZM343.321 112.921C343.344 127.812 338.952 142.376 330.702 154.769C322.451 167.162 310.712 176.827 296.97 182.542C283.228 188.257 268.101 189.764 253.503 186.873C238.905 183.982 225.491 176.822 214.961 166.301C204.43 155.779 197.255 142.368 194.343 127.764C191.431 113.16 192.914 98.0207 198.604 84.2605C204.293 70.5004 213.934 58.7383 226.305 50.4626C238.677 42.1869 253.224 37.7696 268.105 37.7696C288.037 37.7593 307.157 45.67 321.261 59.7625C335.366 73.855 343.301 92.9757 343.321 112.921Z" fill="#3D85C6"/>
<path d="M641.215 138.823C635.054 138.823 629.164 129.167 626.722 121.024C616.297 122.85 606.184 126.154 596.69 130.834C599.558 138.861 600.875 150.689 595.217 154.101C589.56 157.513 579.95 151.774 573.788 145.958C565.684 152.752 558.587 160.664 552.707 169.457C559.179 175.002 566.232 184.58 562.977 190.242C559.721 195.903 548.561 195.865 540.307 193.887C536.693 203.869 534.514 214.314 533.836 224.909C542.206 226.46 553.211 231.23 553.211 237.745C553.211 244.259 543.562 249.805 535.424 252.248C537.273 262.674 540.574 272.79 545.228 282.3C553.289 279.431 565.108 278.112 568.479 283.774C571.851 289.436 566.154 299.052 560.341 305.218C567.141 313.318 575.047 320.419 583.825 326.313C589.366 319.837 598.938 312.78 604.595 316.037C610.253 319.294 610.214 330.462 608.47 338.722C618.45 342.323 628.886 344.503 639.471 345.198C641.021 336.822 645.788 325.809 652.298 325.809C658.808 325.809 664.388 335.465 666.791 343.608C677.22 341.774 687.333 338.458 696.823 333.759C693.956 325.732 692.638 313.904 698.296 310.492C703.953 307.079 713.564 312.818 719.725 318.635C727.811 311.822 734.906 303.913 740.806 295.136C734.334 289.552 727.282 280.012 730.537 274.351C733.792 268.689 744.952 268.728 753.206 270.667C756.823 260.686 759.002 250.24 759.678 239.645C751.307 238.094 740.302 233.324 740.302 226.809C740.302 220.295 749.951 214.711 758.089 212.306C756.251 201.877 752.951 191.759 748.285 182.254C740.224 185.123 728.405 186.442 725.034 180.78C721.663 175.119 727.359 165.502 733.172 159.336C726.382 151.227 718.475 144.124 709.688 138.241C704.147 144.717 694.576 151.774 688.918 148.517C683.26 145.26 683.299 134.092 685.275 125.832C675.299 122.22 664.862 120.04 654.274 119.356C652.492 127.926 647.725 138.823 641.215 138.823ZM721.701 232.277C721.724 247.169 717.333 261.732 709.082 274.125C700.831 286.518 689.092 296.184 675.35 301.898C661.608 307.613 646.481 309.12 631.883 306.229C617.285 303.338 603.872 296.179 593.341 285.657C582.81 275.135 575.635 261.724 572.723 247.12C569.811 232.517 571.294 217.377 576.984 203.617C582.673 189.856 592.314 178.094 604.685 169.819C617.057 161.543 631.604 157.126 646.485 157.126C666.417 157.115 685.537 165.026 699.641 179.119C713.746 193.211 721.681 212.332 721.701 232.277Z" fill="#3D85C6"/>
<circle cx="643.571" cy="225.514" r="63.2357" fill="white"/>
<path d="M124.962 401.909C117.842 401.909 111.036 390.751 108.215 381.341C96.1677 383.452 84.4824 387.269 73.5111 392.678C76.8248 401.954 78.3472 415.621 71.8095 419.564C65.2717 423.507 54.1665 416.875 47.0466 410.154C37.6824 418.005 29.4804 427.148 22.6868 437.309C30.1649 443.717 38.3147 454.785 34.5532 461.327C30.7918 467.869 17.8954 467.824 8.35744 465.539C4.18159 477.074 1.66376 489.144 0.879333 501.387C10.5516 503.179 23.2689 508.691 23.2689 516.219C23.2689 523.747 12.1189 530.155 2.71526 532.978C4.85197 545.027 8.66542 556.716 14.0444 567.706C23.3584 564.39 37.0161 562.866 40.9119 569.408C44.8077 575.951 38.2251 587.063 31.5083 594.188C39.3659 603.548 48.5008 611.754 58.6444 618.565C65.0478 611.082 76.1083 602.926 82.646 606.69C89.1838 610.454 89.139 623.359 87.1239 632.904C98.6558 637.065 110.715 639.584 122.947 640.387C124.738 630.708 130.246 617.982 137.769 617.982C145.292 617.982 151.74 629.14 154.517 638.55C166.568 636.431 178.254 632.598 189.22 627.168C185.907 617.893 184.384 604.226 190.922 600.282C197.46 596.339 208.565 602.971 215.685 609.692C225.028 601.82 233.228 592.68 240.045 582.538C232.567 576.085 224.417 565.062 228.178 558.52C231.94 551.977 244.836 552.022 254.374 554.263C258.554 542.729 261.072 530.659 261.852 518.415C252.18 516.622 239.463 511.111 239.463 503.583C239.463 496.055 250.613 489.602 260.016 486.824C257.893 474.772 254.079 463.08 248.687 452.096C239.373 455.412 225.715 456.936 221.82 450.393C217.924 443.851 224.506 432.738 231.223 425.613C223.377 416.243 214.241 408.035 204.087 401.237C197.684 408.72 186.623 416.875 180.085 413.111C173.548 409.347 173.592 396.442 175.876 386.898C164.348 382.724 152.287 380.204 140.053 379.414C137.993 389.317 132.485 401.909 124.962 401.909ZM217.969 509.901C217.995 527.109 212.92 543.938 203.386 558.259C193.852 572.579 180.286 583.748 164.407 590.352C148.527 596.956 131.047 598.697 114.178 595.356C97.3093 592.016 81.8097 583.743 69.6408 571.584C57.4719 559.426 49.1806 543.928 45.816 527.053C42.4514 510.178 44.1648 492.683 50.7393 476.782C57.3138 460.881 68.454 447.29 82.7502 437.727C97.0464 428.164 113.856 423.059 131.052 423.059C154.084 423.047 176.178 432.189 192.477 448.473C208.776 464.758 217.945 486.853 217.969 509.901Z" fill="#3D85C6"/>
<circle cx="131.366" cy="509.901" r="71.2657" fill="white"/>
<circle cx="343.657" cy="653.938" r="66.7488" fill="white"/>
<circle cx="267.875" cy="112.419" r="66.2469" fill="white"/>
<path d="M133.958 478.785C131.706 478.785 129.856 480.633 129.856 482.885C129.856 485.137 131.706 486.987 133.958 486.987C136.21 486.987 138.058 485.137 138.058 482.885C138.058 480.633 136.21 478.785 133.958 478.785ZM133.958 480.32C135.367 480.32 136.522 481.476 136.522 482.885C136.522 484.294 135.367 485.441 133.958 485.441C132.549 485.441 131.401 484.294 131.401 482.885C131.401 481.476 132.549 480.32 133.958 480.32ZM133.958 481.349C133.103 481.349 132.422 482.03 132.422 482.885C132.422 483.74 133.103 484.42 133.958 484.42C134.813 484.42 135.493 483.74 135.493 482.885C135.493 482.03 134.813 481.349 133.958 481.349ZM128.925 481.92L120.908 486.55C122.557 487.403 123.708 489.106 123.708 491.079C123.708 491.426 123.673 491.764 123.606 492.092L131.666 487.439C129.996 486.59 128.831 484.872 128.831 482.885C128.831 482.555 128.866 482.233 128.925 481.92ZM139.077 482.763C139.078 482.804 139.084 482.844 139.084 482.885C139.084 485.628 136.884 487.891 134.166 488.002L139.197 493.033C139.68 490.461 141.78 488.442 144.389 488.078L139.077 482.763ZM118.583 486.987C116.331 486.987 114.481 488.827 114.481 491.079C114.481 493.331 116.331 495.181 118.583 495.181C120.836 495.181 122.683 493.331 122.683 491.079C122.683 488.827 120.836 486.987 118.583 486.987ZM118.583 488.522C119.992 488.522 121.148 489.67 121.148 491.079C121.148 492.488 119.992 493.643 118.583 493.643C117.174 493.643 116.027 492.488 116.027 491.079C116.027 490.903 116.046 490.731 116.079 490.564C116.318 489.401 117.35 488.522 118.583 488.522ZM145.23 489.037C142.412 489.037 140.11 491.341 140.11 494.16C140.11 496.978 142.412 499.281 145.23 499.281C148.049 499.281 150.361 496.978 150.361 494.16C150.361 491.341 148.049 489.037 145.23 489.037ZM118.583 489.543C117.835 489.543 117.22 490.063 117.078 490.766C117.059 490.867 117.047 490.972 117.047 491.079C117.047 491.934 117.727 492.622 118.582 492.622C119.438 492.622 120.118 491.934 120.118 491.079C120.118 490.224 119.439 489.543 118.583 489.543ZM145.23 491.593C146.64 491.593 147.797 492.751 147.797 494.16C147.797 495.569 146.64 496.724 145.23 496.724C143.821 496.724 142.674 495.569 142.674 494.16C142.674 493.984 142.693 493.812 142.726 493.645C142.965 492.48 143.997 491.593 145.23 491.593ZM145.23 492.622C144.482 492.622 143.867 493.144 143.725 493.847C143.706 493.948 143.694 494.053 143.694 494.16C143.694 495.015 144.374 495.695 145.23 495.695C146.085 495.695 146.775 495.015 146.775 494.16C146.775 493.305 146.086 492.622 145.23 492.622ZM123.394 492.778C123.036 493.781 122.385 494.645 121.53 495.253L122.685 495.92V500.308C122.685 501.16 123.371 501.845 124.223 501.845C125.074 501.845 125.76 501.16 125.76 500.308V495.025C125.76 494.522 125.547 494.023 124.945 493.675L123.394 492.778ZM113.773 492.78L112.225 493.675C111.623 494.023 111.411 494.522 111.411 495.025V500.308C111.411 501.16 112.096 501.845 112.948 501.845C113.8 501.845 114.486 501.16 114.486 500.308V495.92L115.639 495.253C114.783 494.645 114.132 493.783 113.773 492.78ZM139.96 497.293L137.423 502.362H137.037C137.002 502.359 136.969 502.359 136.935 502.36L136.931 502.362C136.406 502.414 136.007 502.856 136.008 503.383V508.508H146.262V503.383C146.26 503.021 146.06 502.719 145.777 502.538L147.028 500.034C146.458 500.209 145.855 500.306 145.231 500.306C142.997 500.306 141.036 499.09 139.96 497.293ZM111.411 507.483V517.733H121.66V507.483H111.411ZM130.891 509.533C130.324 509.529 129.862 509.987 129.86 510.554V518.762H151.382C151.732 518.762 152.074 518.797 152.411 518.846V510.554C152.409 509.988 151.948 509.531 151.382 509.533H130.891ZM106.288 519.787C102.899 519.787 100.138 522.541 100.138 525.931C100.138 529.32 102.899 532.081 106.288 532.081H151.382C154.772 532.081 157.534 529.32 157.534 525.931C157.534 522.541 154.772 519.787 151.382 519.787H106.288ZM106.288 523.32C107.725 523.32 108.898 524.494 108.898 525.931C108.898 527.368 107.725 528.547 106.288 528.547C104.851 528.547 103.671 527.368 103.671 525.931C103.671 524.494 104.851 523.32 106.288 523.32ZM117.562 523.32C118.999 523.32 120.173 524.494 120.173 525.931C120.173 527.368 118.999 528.547 117.562 528.547C116.126 528.547 114.944 527.368 114.944 525.931C114.944 524.494 116.126 523.32 117.562 523.32ZM128.835 523.32C130.272 523.32 131.446 524.494 131.445 525.931C131.446 527.368 130.272 528.547 128.835 528.547C127.398 528.547 126.219 527.368 126.219 525.931C126.219 524.494 127.398 523.32 128.835 523.32ZM140.11 523.32C141.546 523.32 142.726 524.494 142.726 525.931C142.726 527.368 141.546 528.547 140.11 528.547C138.673 528.547 137.499 527.368 137.499 525.931C137.499 524.494 138.673 523.32 140.11 523.32ZM151.382 523.32C152.819 523.32 154.001 524.494 154.001 525.931C154.001 527.368 152.819 528.547 151.382 528.547C149.945 528.547 148.772 527.368 148.772 525.931C148.772 524.494 149.945 523.32 151.382 523.32ZM106.288 524.447C105.46 524.447 104.798 525.103 104.798 525.931C104.798 526.758 105.46 527.42 106.288 527.42C107.115 527.42 107.771 526.758 107.771 525.931C107.771 525.103 107.115 524.447 106.288 524.447ZM117.562 524.447C116.735 524.447 116.071 525.103 116.071 525.931C116.071 526.758 116.735 527.42 117.562 527.42C118.39 527.42 119.046 526.758 119.046 525.931C119.046 525.103 118.39 524.447 117.562 524.447ZM128.835 524.447C128.008 524.447 127.352 525.103 127.352 525.931C127.352 526.758 128.008 527.42 128.835 527.42C129.663 527.42 130.318 526.758 130.318 525.931C130.318 525.103 129.663 524.447 128.835 524.447ZM140.11 524.447C139.282 524.447 138.626 525.103 138.626 525.931C138.626 526.758 139.282 527.42 140.11 527.42C140.937 527.42 141.593 526.758 141.593 525.931C141.593 525.103 140.937 524.447 140.11 524.447ZM151.382 524.447C150.555 524.447 149.899 525.103 149.899 525.931C149.899 526.758 150.555 527.42 151.382 527.42C152.21 527.42 152.874 526.758 152.874 525.931C152.874 525.103 152.21 524.447 151.382 524.447ZM152.411 533.022C152.074 533.071 151.732 533.106 151.382 533.106H129.86V535.162C129.862 535.729 130.324 536.186 130.891 536.183H151.382C151.948 536.185 152.409 535.728 152.411 535.162V533.022Z" fill="#2B5F8F"/>
<path d="M647.37 206.505C635.956 206.505 628.82 218.839 634.519 228.732L647.37 250.959L660.222 228.732C665.921 218.839 658.768 206.505 647.37 206.505ZM647.37 227.846C644.078 227.846 641.404 225.172 641.404 221.88C641.404 218.588 644.078 215.914 647.37 215.914C650.663 215.914 653.337 218.588 653.337 221.88C653.337 225.172 650.663 227.846 647.37 227.846Z" fill="#2B5F8F"/>
<path d="M667.408 256.641H627.333L632.38 237.439H637.761V239.244H633.767L629.672 254.836H665.068L660.974 239.244H656.98V237.439H662.361L667.408 256.641Z" fill="#FE8100"/>
<path d="M282.864 654.978C282.864 642.748 286.49 630.793 293.285 620.625C300.079 610.457 309.736 602.531 321.035 597.851C332.333 593.171 344.766 591.947 356.76 594.333C368.755 596.718 379.773 602.607 388.42 611.255C397.068 619.903 402.957 630.92 405.343 642.915C407.728 654.909 406.504 667.342 401.824 678.64C397.144 689.939 389.218 699.596 379.05 706.39C368.882 713.185 356.927 716.811 344.697 716.811C328.308 716.78 312.598 710.256 301.009 698.666C289.419 687.077 282.895 671.368 282.864 654.978ZM277.948 654.978C277.948 668.179 281.863 681.085 289.198 692.061C296.532 703.038 306.957 711.594 319.154 716.646C331.35 721.698 344.771 723.02 357.719 720.444C370.667 717.869 382.561 711.511 391.896 702.176C401.231 692.841 407.588 680.948 410.164 668C412.739 655.052 411.417 641.631 406.365 629.434C401.313 617.237 392.758 606.813 381.781 599.478C370.804 592.144 357.899 588.229 344.697 588.229C326.994 588.229 310.017 595.261 297.499 607.779C284.981 620.297 277.948 637.275 277.948 654.978Z" fill="#3D85C6"/>
<path d="M596.61 460.549C596.61 450.435 599.61 440.547 605.229 432.137C610.848 423.727 618.835 417.173 628.18 413.302C637.525 409.431 647.807 408.418 657.728 410.392C667.648 412.365 676.76 417.236 683.912 424.388C691.064 431.54 695.935 440.652 697.908 450.572C699.882 460.493 698.869 470.775 694.998 480.12C691.127 489.465 684.573 497.452 676.163 503.071C667.753 508.69 657.865 511.69 647.751 511.69C634.195 511.664 621.202 506.268 611.617 496.683C602.032 487.098 596.636 474.105 596.61 460.549ZM592.545 460.549C592.545 471.468 595.783 482.142 601.849 491.22C607.915 500.299 616.537 507.374 626.624 511.553C636.712 515.731 647.812 516.825 658.521 514.694C669.23 512.564 679.066 507.306 686.787 499.586C694.508 491.865 699.766 482.028 701.896 471.32C704.026 460.611 702.933 449.511 698.754 439.423C694.576 429.336 687.5 420.714 678.421 414.647C669.343 408.581 658.669 405.344 647.751 405.344C633.109 405.344 619.067 411.16 608.714 421.513C598.361 431.866 592.545 445.908 592.545 460.549Z" fill="#3D85C6"/>
<path d="M206.506 112.419C206.506 100.282 210.105 88.4166 216.849 78.3246C223.592 68.2326 233.176 60.3668 244.39 55.722C255.603 51.0772 267.943 49.8618 279.847 52.2298C291.751 54.5977 302.686 60.4425 311.269 69.025C319.851 77.6076 325.696 88.5423 328.064 100.447C330.432 112.351 329.216 124.69 324.572 135.904C319.927 147.117 312.061 156.702 301.969 163.445C291.877 170.188 280.012 173.787 267.875 173.787C251.608 173.757 236.017 167.281 224.514 155.779C213.012 144.277 206.537 128.686 206.506 112.419ZM201.628 112.419C201.628 125.521 205.513 138.33 212.792 149.224C220.072 160.118 230.418 168.609 242.523 173.623C254.628 178.637 267.948 179.949 280.799 177.393C293.649 174.837 305.453 168.527 314.718 159.263C323.983 149.998 330.292 138.194 332.849 125.343C335.405 112.493 334.093 99.1725 329.079 87.0675C324.065 74.9624 315.574 64.616 304.679 57.3367C293.785 50.0574 280.977 46.1721 267.875 46.1721C250.305 46.1721 233.455 53.1517 221.031 65.5754C208.607 77.9991 201.628 94.8493 201.628 112.419Z" fill="#3D85C6"/>
<path d="M584.886 231.775C584.886 219.638 588.485 207.773 595.229 197.681C601.972 187.589 611.556 179.723 622.77 175.078C633.984 170.433 646.323 169.218 658.227 171.586C670.131 173.954 681.066 179.799 689.649 188.381C698.231 196.964 704.076 207.898 706.444 219.803C708.812 231.707 707.597 244.046 702.952 255.26C698.307 266.473 690.441 276.058 680.349 282.801C670.257 289.544 658.392 293.144 646.255 293.144C629.988 293.113 614.397 286.637 602.895 275.135C591.392 263.633 584.917 248.042 584.886 231.775ZM580.008 231.775C580.008 244.878 583.893 257.686 591.172 268.58C598.452 279.474 608.798 287.965 620.903 292.979C633.008 297.993 646.328 299.305 659.179 296.749C672.029 294.193 683.834 287.884 693.098 278.619C702.363 269.354 708.673 257.55 711.229 244.699C713.785 231.849 712.473 218.529 707.459 206.424C702.445 194.319 693.954 183.972 683.06 176.693C672.165 169.413 659.357 165.528 646.255 165.528C628.685 165.528 611.835 172.508 599.411 184.931C586.987 197.355 580.008 214.205 580.008 231.775Z" fill="#3D85C6"/>
<path d="M59.7323 509.399C59.7323 495.33 63.9041 481.578 71.7201 469.88C79.5361 458.183 90.6454 449.066 103.643 443.682C116.641 438.298 130.943 436.889 144.741 439.634C158.539 442.379 171.214 449.153 181.161 459.101C191.109 469.049 197.884 481.724 200.629 495.522C203.373 509.32 201.965 523.622 196.581 536.62C191.197 549.617 182.08 560.727 170.382 568.543C158.685 576.359 144.932 580.53 130.864 580.53C112.01 580.495 93.9376 572.989 80.6055 559.657C67.2735 546.325 59.7679 528.253 59.7323 509.399ZM54.0776 509.399C54.0776 524.586 58.5811 539.432 67.0184 552.059C75.4558 564.686 87.4482 574.528 101.479 580.34C115.51 586.152 130.949 587.672 145.844 584.71C160.739 581.747 174.421 574.434 185.16 563.695C195.899 552.956 203.212 539.274 206.175 524.379C209.137 509.484 207.617 494.045 201.805 480.014C195.993 465.983 186.151 453.991 173.524 445.553C160.897 437.116 146.051 432.613 130.864 432.613C110.499 432.613 90.968 440.703 76.5678 455.103C62.1676 469.503 54.0776 489.034 54.0776 509.399Z" fill="#3D85C6"/>
<path d="M390.773 227.461C381.614 227.461 372.754 213.08 369.372 200.924C353.818 203.664 338.731 208.592 324.558 215.562C328.839 227.589 330.765 245.224 322.333 250.103C313.901 254.983 299.562 246.636 290.36 237.948C278.29 248.108 267.7 259.908 258.9 273.003C268.573 281.263 279.06 295.559 274.223 303.991C269.387 312.423 252.822 312.552 240.409 309.47C235.037 324.306 231.781 339.824 230.736 355.568C243.234 357.879 259.499 365.027 259.499 374.743C259.499 384.459 245.075 392.72 232.919 396.358C235.674 411.914 240.616 427.002 247.6 441.172C259.585 436.892 277.219 434.923 282.099 443.355C286.978 451.787 278.632 466.126 269.943 475.371C280.115 487.43 291.913 498.018 304.998 506.831C313.302 497.157 327.555 486.628 335.987 491.507C344.419 496.387 344.547 512.908 341.465 525.321C356.315 530.698 371.848 533.954 387.606 534.994C389.917 522.496 397.022 506.231 406.739 506.231C416.455 506.231 424.758 520.656 428.396 532.769C443.94 530.042 459.016 525.113 473.167 518.13C468.887 506.146 466.961 488.511 475.393 483.632C483.825 478.752 498.164 487.099 507.366 495.788C519.447 485.622 530.038 473.807 538.826 460.69C529.153 452.429 518.666 438.176 523.503 429.744C528.339 421.312 544.904 421.184 557.316 424.265C562.709 409.435 565.966 393.914 566.99 378.167C554.491 375.813 538.27 368.708 538.27 358.992C538.27 349.276 552.651 340.972 564.807 337.334C562.066 321.789 557.122 306.713 550.126 292.563C538.141 296.843 520.507 298.769 515.627 290.337C510.748 281.905 519.094 267.567 527.783 258.364C517.634 246.283 505.833 235.693 492.728 226.905C484.467 236.578 470.171 247.064 461.739 242.228C453.307 237.391 453.179 220.827 456.261 208.371C441.429 202.993 425.907 199.75 410.163 198.741C407.637 211.239 400.489 227.461 390.773 227.461ZM510.876 366.868C510.876 389.059 504.297 410.751 491.971 429.204C479.645 447.657 462.125 462.042 441.626 470.54C421.127 479.038 398.568 481.268 376.802 476.948C355.035 472.628 335.038 461.952 319.338 446.269C303.637 430.587 292.939 410.602 288.594 388.841C284.249 367.079 286.453 344.518 294.928 324.009C303.402 303.5 317.767 285.964 336.205 273.616C354.644 261.269 376.33 254.666 398.521 254.64C413.269 254.624 427.877 257.514 441.507 263.146C455.138 268.779 467.525 277.043 477.96 287.466C488.395 297.888 496.673 310.266 502.321 323.89C507.969 337.515 510.876 352.119 510.876 366.868Z" fill="#2B5F8F"/>
<circle cx="399.365" cy="367.369" r="92.3442" fill="white"/>
<circle cx="399.365" cy="367.369" r="92.3442" fill="white"/>
<path d="M307.35 366.868C307.35 348.746 312.725 331.031 322.796 315.965C332.866 300.899 347.18 289.158 363.925 282.229C380.67 275.3 399.094 273.494 416.866 277.038C434.638 280.583 450.959 289.32 463.764 302.143C476.569 314.966 485.283 331.299 488.803 349.076C492.323 366.853 490.49 385.275 483.538 402.01C476.585 418.745 464.825 433.042 449.745 443.092C434.664 453.141 416.942 458.492 398.82 458.466C374.537 458.432 351.258 448.771 334.088 431.6C316.917 414.429 307.255 391.151 307.221 366.868H307.35ZM299.994 366.868C299.994 386.424 305.794 405.541 316.66 421.8C327.525 438.06 342.969 450.732 361.037 458.214C379.106 465.696 398.987 467.652 418.167 463.833C437.347 460.015 454.963 450.594 468.789 436.763C482.614 422.932 492.027 405.311 495.837 386.13C499.647 366.948 497.683 347.068 490.193 329.003C482.704 310.937 470.025 295.499 453.76 284.641C437.496 273.782 418.376 267.991 398.82 267.999C385.839 267.999 372.984 270.557 360.991 275.526C348.998 280.495 338.102 287.778 328.925 296.96C319.747 306.141 312.469 317.04 307.505 329.035C302.541 341.031 299.989 353.886 299.994 366.868Z" fill="#2B5F8F"/>
<g clip-path="url(#clip0)">
<path d="M383.695 356.929V357.902C383.67 359.958 384.055 361.999 384.828 363.906C385.601 365.813 386.746 367.549 388.197 369.012C389.648 370.475 391.376 371.636 393.282 372.429C395.187 373.222 397.231 373.63 399.296 373.63C401.361 373.63 403.405 373.222 405.311 372.429C407.216 371.636 408.944 370.475 410.395 369.012C411.847 367.549 412.992 365.813 413.765 363.906C414.538 361.999 414.923 359.958 414.898 357.902V356.929H383.695Z" fill="#2B5F8F"/>
<path d="M415.826 350.127H414.849C414.683 347.488 413.843 344.935 412.41 342.71C410.977 340.484 408.997 338.66 406.659 337.408L405.098 343.558C405.045 343.773 404.919 343.964 404.742 344.099C404.565 344.234 404.347 344.304 404.124 344.297H403.895C403.643 344.245 403.423 344.095 403.282 343.881C403.141 343.667 403.09 343.407 403.141 343.156C403.14 343.138 403.14 343.119 403.141 343.101L404.995 335.822C404.838 335.193 404.476 334.634 403.965 334.233C403.454 333.832 402.824 333.612 402.174 333.608H396.323C395.672 333.61 395.041 333.828 394.529 334.227C394.017 334.627 393.653 335.185 393.495 335.813L395.349 343.092C395.416 343.341 395.381 343.606 395.252 343.83C395.123 344.053 394.911 344.216 394.661 344.284L394.606 344.297H394.377C394.154 344.304 393.936 344.234 393.759 344.099C393.581 343.964 393.456 343.773 393.403 343.558L391.879 337.408C389.542 338.66 387.563 340.485 386.131 342.711C384.699 344.936 383.861 347.489 383.695 350.127H382.67C382.177 350.161 381.715 350.38 381.377 350.74C381.039 351.1 380.852 351.575 380.852 352.067C380.852 352.56 381.039 353.034 381.377 353.395C381.715 353.755 382.177 353.974 382.67 354.008H415.826C416.319 353.974 416.782 353.755 417.119 353.395C417.457 353.034 417.645 352.56 417.645 352.067C417.645 351.575 417.457 351.1 417.119 350.74C416.782 350.38 416.319 350.161 415.826 350.127ZM398.108 349.157L399.254 344.592H397.627L398.417 339.732H400.766L399.717 343.423H401.365L398.108 349.157Z" fill="#2B5F8F"/>
<path d="M372.857 392.428V379.009C371.458 378.578 370.235 377.711 369.368 376.535C368.502 375.359 368.037 373.937 368.044 372.478V368.598H369.935V363.738C369.96 363.37 370.125 363.024 370.397 362.772C370.668 362.52 371.025 362.38 371.396 362.38C371.767 362.38 372.124 362.52 372.395 362.772C372.667 363.024 372.832 363.37 372.857 363.738V368.598H376.82V363.738C376.834 363.362 376.995 363.006 377.268 362.744C377.541 362.483 377.904 362.337 378.283 362.337C378.661 362.337 379.025 362.483 379.298 362.744C379.57 363.006 379.731 363.362 379.746 363.738V368.598H381.696V372.478C381.697 373.955 381.215 375.392 380.323 376.572C379.432 377.752 378.178 378.611 376.753 379.018V391.426C376.753 391.682 376.803 391.934 376.901 392.17C376.999 392.406 377.142 392.621 377.323 392.801C377.505 392.982 377.72 393.125 377.956 393.223C378.193 393.321 378.447 393.371 378.703 393.371H386.571C387.212 393.371 387.846 393.497 388.437 393.741C389.029 393.985 389.567 394.343 390.02 394.794C390.472 395.245 390.832 395.78 391.077 396.37C391.322 396.959 391.448 397.591 391.448 398.228V416.818H387.552V399.201C387.552 398.946 387.502 398.693 387.403 398.457C387.305 398.222 387.162 398.008 386.981 397.827C386.8 397.647 386.585 397.504 386.348 397.406C386.111 397.309 385.858 397.258 385.602 397.258H377.81C376.517 397.274 375.272 396.777 374.347 395.879C373.421 394.98 372.892 393.752 372.875 392.465V392.435L372.857 392.428Z" fill="#FE8100"/>
<path d="M385.597 399.201H377.805C375.994 399.2 374.258 398.483 372.977 397.208C371.697 395.932 370.978 394.202 370.978 392.399V386.859C370.085 387.596 369.361 388.516 368.855 389.555C368.349 390.595 368.073 391.73 368.044 392.885V408.432H385.597V399.201Z" fill="#2B5F8F"/>
<path d="M427.33 386.665C423.04 383.168 417.581 380.835 412.12 379.281C407.948 378.007 403.61 377.352 399.247 377.336C394.89 377.412 390.562 378.066 386.379 379.281C383.745 380.033 381.182 381.009 378.715 382.195V391.426H386.571C388.382 391.427 390.118 392.144 391.399 393.419C392.679 394.695 393.398 396.425 393.398 398.228V408.432H430.452V392.885C430.427 391.682 430.134 390.501 429.594 389.425C429.054 388.349 428.281 387.406 427.33 386.665Z" fill="#2B5F8F"/>
</g>
<path d="M410.026 316.43C409.813 316.647 409.522 316.772 409.217 316.775C408.913 316.778 408.619 316.66 408.401 316.447C407.214 315.286 405.809 314.37 404.268 313.751C402.727 313.132 401.08 312.822 399.42 312.84C397.76 312.858 396.12 313.202 394.594 313.854C393.068 314.506 391.685 315.451 390.525 316.638C390.312 316.856 390.021 316.98 389.716 316.983C389.411 316.986 389.118 316.868 388.9 316.655C388.682 316.442 388.557 316.151 388.554 315.846C388.55 315.541 388.668 315.248 388.881 315.03C391.65 312.199 395.431 310.584 399.393 310.542C403.355 310.5 407.173 312.033 410.007 314.805C410.225 315.018 410.35 315.309 410.353 315.614C410.357 315.918 410.239 316.212 410.026 316.43Z" fill="#A5A7A8"/>
<path d="M406.01 320.536C405.797 320.754 405.506 320.878 405.201 320.881C404.897 320.884 404.603 320.766 404.385 320.553C403.077 319.274 401.315 318.566 399.486 318.586C397.658 318.605 395.912 319.351 394.634 320.657C394.421 320.875 394.13 320.999 393.826 321.003C393.521 321.006 393.227 320.888 393.009 320.675C392.791 320.461 392.667 320.17 392.663 319.866C392.66 319.561 392.777 319.267 392.99 319.05C394.695 317.307 397.022 316.314 399.46 316.288C401.898 316.262 404.247 317.205 405.991 318.911C406.209 319.124 406.334 319.415 406.337 319.72C406.341 320.025 406.223 320.318 406.01 320.536Z" fill="#A5A7A8"/>
<path d="M401.994 324.642C401.781 324.86 401.49 324.984 401.186 324.987C400.881 324.991 400.587 324.873 400.369 324.659C400.151 324.446 399.858 324.328 399.553 324.331C399.248 324.335 398.957 324.459 398.744 324.677C398.531 324.895 398.24 325.019 397.935 325.022C397.631 325.025 397.337 324.907 397.119 324.694C396.901 324.481 396.777 324.19 396.773 323.885C396.77 323.58 396.887 323.287 397.1 323.069C397.739 322.416 398.612 322.043 399.526 322.033C400.441 322.023 401.322 322.377 401.976 323.017C402.194 323.23 402.318 323.521 402.322 323.826C402.325 324.131 402.207 324.424 401.994 324.642Z" fill="#A5A7A8"/>
<g clip-path="url(#clip1)">
<path fill-rule="evenodd" clip-rule="evenodd" d="M254.635 112.569C254.273 114.707 253.765 116.851 253.117 118.602C253.047 118.872 252.793 119.075 252.488 119.075C251.904 119.075 251.377 119.302 250.99 119.677C250.609 120.051 250.367 120.561 250.367 121.127C250.367 121.679 250.596 122.177 250.964 122.552L250.99 122.576C251.377 122.945 251.904 123.178 252.488 123.178H262.135H273.236H282.883C283.461 123.178 283.995 122.945 284.382 122.576C284.763 122.202 285.005 121.692 285.005 121.127C285.005 120.574 284.776 120.07 284.408 119.701L284.382 119.677C283.995 119.302 283.461 119.075 282.883 119.069C282.617 119.069 282.369 118.909 282.274 118.657C281.962 117.822 281.683 116.9 281.435 115.936C281.2 114.996 280.991 114.013 280.813 113.018C280.343 113.091 279.86 113.128 279.365 113.128C276.895 113.128 274.653 112.158 273.027 110.591C271.407 109.019 270.404 106.85 270.404 104.46C270.404 102.065 271.407 99.8961 273.027 98.3296C273.776 97.6047 274.653 97.0088 275.624 96.5788C274.792 95.9092 273.872 95.3379 272.881 94.8956C272.843 93.5626 272.265 92.3585 271.357 91.4801C270.417 90.5709 269.121 90.0057 267.686 90.0057C266.251 90.0057 264.955 90.5709 264.015 91.4801C263.101 92.3585 262.529 93.5626 262.491 94.8956C261.157 95.4976 259.944 96.3208 258.915 97.316C256.667 99.4906 255.27 102.495 255.27 105.8C255.27 107.649 255.048 110.106 254.635 112.569ZM270.061 94.0049C269.293 93.8636 268.499 93.7837 267.686 93.7837C266.873 93.7837 266.079 93.8636 265.311 94.011C265.444 93.7284 265.622 93.4704 265.851 93.2554C266.32 92.8008 266.968 92.5183 267.686 92.5183C268.404 92.5183 269.051 92.8008 269.521 93.2554C269.744 93.4704 269.928 93.7223 270.061 94.0049ZM271.89 124.438H263.482C263.621 125.322 264.053 126.115 264.682 126.717C265.444 127.46 266.511 127.921 267.686 127.921C268.861 127.921 269.921 127.46 270.69 126.717C271.319 126.115 271.75 125.322 271.89 124.438ZM271.7 104.46C271.7 106.506 272.557 108.361 273.948 109.7C275.332 111.04 277.25 111.869 279.365 111.869C281.486 111.869 283.398 111.04 284.789 109.7C286.173 108.361 287.03 106.506 287.03 104.46C287.03 102.409 286.173 100.553 284.789 99.2142C283.398 97.875 281.486 97.0457 279.365 97.0457C277.25 97.0457 275.332 97.875 273.948 99.2142C272.557 100.553 271.7 102.409 271.7 104.46ZM261.106 105.13C261.106 105.474 260.821 105.757 260.459 105.757C260.103 105.757 259.811 105.474 259.811 105.13C259.811 103.219 260.617 101.481 261.919 100.222C263.221 98.9623 265.019 98.1822 266.994 98.1822C267.349 98.1822 267.641 98.4647 267.641 98.8088C267.641 99.1589 267.349 99.4353 266.994 99.4353C265.374 99.4353 263.901 100.08 262.84 101.112C261.773 102.144 261.106 103.563 261.106 105.13Z" fill="#2B5F8F"/>
<ellipse cx="279.698" cy="104.75" rx="7.33262" ry="7.37236" fill="#FE8100"/>
</g>
<path d="M156.514 478.481C156.268 478.508 156.022 478.437 155.83 478.282C155.637 478.128 155.514 477.903 155.487 477.658C155.339 476.321 154.93 475.026 154.282 473.847C153.635 472.668 152.762 471.628 151.713 470.786C150.664 469.945 149.459 469.319 148.169 468.943C146.878 468.568 145.526 468.45 144.19 468.598C143.945 468.625 143.699 468.553 143.506 468.399C143.313 468.244 143.19 468.02 143.163 467.774C143.136 467.529 143.207 467.282 143.362 467.09C143.516 466.897 143.74 466.774 143.986 466.746C147.174 466.395 150.372 467.325 152.876 469.333C155.38 471.341 156.984 474.262 157.336 477.454C157.363 477.699 157.292 477.945 157.138 478.138C156.983 478.331 156.759 478.454 156.514 478.481Z" fill="#A5A7A8"/>
<path d="M151.889 478.992C151.644 479.019 151.398 478.947 151.205 478.793C151.013 478.638 150.889 478.413 150.862 478.168C150.7 476.695 149.959 475.347 148.804 474.42C147.648 473.493 146.172 473.064 144.7 473.226C144.455 473.253 144.209 473.182 144.017 473.027C143.824 472.873 143.701 472.648 143.673 472.403C143.646 472.157 143.718 471.911 143.872 471.718C144.026 471.525 144.251 471.402 144.496 471.375C146.458 471.158 148.426 471.731 149.967 472.967C151.508 474.202 152.495 476 152.712 477.964C152.739 478.209 152.668 478.456 152.513 478.648C152.359 478.841 152.134 478.965 151.889 478.992Z" fill="#A5A7A8"/>
<path d="M147.265 479.502C147.02 479.529 146.774 479.457 146.581 479.303C146.389 479.148 146.265 478.924 146.238 478.678C146.211 478.433 146.088 478.208 145.895 478.054C145.702 477.899 145.456 477.827 145.211 477.855C144.966 477.882 144.72 477.81 144.527 477.656C144.335 477.501 144.211 477.276 144.184 477.031C144.157 476.785 144.229 476.539 144.383 476.346C144.537 476.154 144.762 476.03 145.007 476.003C145.743 475.922 146.481 476.137 147.058 476.6C147.636 477.064 148.007 477.738 148.088 478.474C148.115 478.72 148.043 478.966 147.889 479.159C147.735 479.351 147.51 479.475 147.265 479.502Z" fill="#A5A7A8"/>
<path d="M331.412 628.609C331.293 628.73 331.132 628.799 330.962 628.801C330.793 628.802 330.63 628.737 330.509 628.618C329.849 627.973 329.069 627.464 328.213 627.121C327.357 626.777 326.442 626.605 325.519 626.615C324.597 626.624 323.686 626.816 322.838 627.178C321.99 627.54 321.222 628.065 320.578 628.724C320.459 628.845 320.298 628.914 320.128 628.916C319.959 628.918 319.796 628.852 319.675 628.734C319.554 628.616 319.485 628.454 319.483 628.285C319.481 628.115 319.546 627.952 319.664 627.831C321.203 626.258 323.304 625.361 325.505 625.338C327.706 625.314 329.827 626.166 331.401 627.706C331.522 627.824 331.592 627.986 331.593 628.155C331.595 628.325 331.53 628.488 331.412 628.609Z" fill="#A5A7A8"/>
<path d="M329.181 630.89C329.062 631.011 328.901 631.08 328.731 631.082C328.562 631.084 328.399 631.018 328.278 630.9C327.551 630.189 326.572 629.796 325.556 629.807C324.54 629.818 323.571 630.232 322.861 630.958C322.742 631.079 322.581 631.148 322.411 631.149C322.242 631.151 322.079 631.086 321.958 630.967C321.837 630.849 321.768 630.687 321.766 630.518C321.764 630.349 321.829 630.185 321.947 630.064C322.894 629.096 324.187 628.544 325.541 628.53C326.896 628.516 328.201 629.04 329.17 629.987C329.291 630.106 329.36 630.267 329.362 630.437C329.364 630.606 329.299 630.769 329.181 630.89Z" fill="#A5A7A8"/>
<path d="M326.95 633.171C326.831 633.292 326.67 633.361 326.5 633.363C326.331 633.365 326.168 633.299 326.047 633.181C325.926 633.063 325.762 632.997 325.593 632.999C325.424 633.001 325.262 633.07 325.144 633.191C325.026 633.312 324.864 633.381 324.695 633.382C324.525 633.384 324.362 633.319 324.241 633.2C324.12 633.082 324.051 632.92 324.049 632.751C324.047 632.582 324.112 632.418 324.231 632.297C324.586 631.934 325.07 631.727 325.578 631.722C326.086 631.717 326.576 631.913 326.939 632.269C327.06 632.387 327.129 632.549 327.131 632.718C327.133 632.887 327.068 633.05 326.95 633.171Z" fill="#A5A7A8"/>
<path d="M370.762 628.609C370.644 628.73 370.482 628.799 370.313 628.801C370.143 628.802 369.98 628.737 369.859 628.618C369.199 627.973 368.419 627.464 367.563 627.121C366.707 626.777 365.792 626.605 364.87 626.615C363.947 626.624 363.036 626.816 362.188 627.178C361.34 627.54 360.572 628.065 359.928 628.724C359.809 628.845 359.648 628.914 359.478 628.916C359.309 628.918 359.146 628.852 359.025 628.734C358.904 628.616 358.835 628.454 358.833 628.285C358.831 628.115 358.896 627.952 359.014 627.831C360.553 626.258 362.654 625.361 364.855 625.338C367.056 625.314 369.177 626.166 370.751 627.706C370.873 627.824 370.942 627.986 370.944 628.155C370.946 628.325 370.88 628.488 370.762 628.609Z" fill="#A5A7A8"/>
<path d="M368.531 630.89C368.412 631.011 368.251 631.08 368.081 631.082C367.912 631.084 367.749 631.018 367.628 630.9C366.901 630.189 365.922 629.796 364.906 629.807C363.89 629.818 362.921 630.232 362.211 630.958C362.092 631.079 361.931 631.148 361.762 631.149C361.592 631.151 361.429 631.086 361.308 630.967C361.187 630.849 361.118 630.687 361.116 630.518C361.114 630.349 361.179 630.185 361.298 630.064C362.244 629.096 363.537 628.544 364.892 628.53C366.246 628.516 367.551 629.04 368.52 629.987C368.641 630.106 368.711 630.267 368.713 630.437C368.714 630.606 368.649 630.769 368.531 630.89Z" fill="#A5A7A8"/>
<path d="M366.3 633.171C366.181 633.292 366.02 633.361 365.85 633.363C365.681 633.365 365.518 633.299 365.397 633.181C365.276 633.063 365.113 632.997 364.943 632.999C364.774 633.001 364.612 633.07 364.494 633.191C364.376 633.312 364.214 633.381 364.045 633.382C363.875 633.384 363.712 633.319 363.591 633.2C363.47 633.082 363.401 632.92 363.399 632.751C363.397 632.582 363.462 632.418 363.581 632.297C363.936 631.934 364.421 631.727 364.929 631.722C365.437 631.717 365.926 631.913 366.289 632.269C366.41 632.387 366.48 632.549 366.482 632.718C366.483 632.887 366.418 633.05 366.3 633.171Z" fill="#A5A7A8"/>
<path d="M110.538 505.66H123.057V518.179H110.538V505.66Z" fill="#FE8100"/>
<path d="M665.605 441.276H631.061C629.228 441.276 627.471 442.004 626.176 443.3C624.88 444.595 624.152 446.352 624.152 448.185V471.214C624.152 473.046 624.88 474.804 626.176 476.099C627.471 477.395 629.228 478.123 631.061 478.123H665.605C667.437 478.123 669.194 477.395 670.49 476.099C671.786 474.804 672.514 473.046 672.514 471.214V448.185C672.514 446.352 671.786 444.595 670.49 443.3C669.194 442.004 667.437 441.276 665.605 441.276V441.276ZM670.211 471.214C670.211 472.436 669.725 473.607 668.862 474.471C667.998 475.335 666.826 475.82 665.605 475.82H631.061C629.839 475.82 628.668 475.335 627.804 474.471C626.94 473.607 626.455 472.436 626.455 471.214V448.185C626.455 446.963 626.94 445.792 627.804 444.928C628.668 444.064 629.839 443.579 631.061 443.579H665.605C666.826 443.579 667.998 444.064 668.862 444.928C669.725 445.792 670.211 446.963 670.211 448.185V471.214Z" fill="#2B5F8F"/>
<path d="M643.583 483.304H653.083C653.503 483.304 653.905 483.122 654.202 482.799C654.499 482.475 654.666 482.035 654.666 481.577C654.666 481.119 654.499 480.68 654.202 480.356C653.905 480.032 653.503 479.85 653.083 479.85H643.583C643.163 479.85 642.76 480.032 642.463 480.356C642.167 480.68 642 481.119 642 481.577C642 482.035 642.167 482.475 642.463 482.799C642.76 483.122 643.163 483.304 643.583 483.304Z" fill="#2B5F8F"/>
<path d="M662.634 457.051C662.34 457.989 661.792 458.828 661.051 459.474C660.309 460.119 659.403 460.547 658.434 460.709C657.464 460.871 656.468 460.761 655.557 460.391C654.646 460.022 653.855 459.407 653.272 458.615C652.69 457.823 652.338 456.885 652.256 455.905C652.174 454.925 652.365 453.942 652.808 453.064C653.251 452.187 653.929 451.449 654.766 450.933C655.603 450.417 656.567 450.144 657.55 450.142V455.462L662.634 457.051ZM663.446 456.475C663.694 455.678 663.751 454.834 663.613 454.011C663.475 453.187 663.145 452.408 662.65 451.736C662.156 451.063 661.51 450.517 660.765 450.14C660.02 449.763 659.197 449.567 658.362 449.567V454.886L663.446 456.475ZM635.235 462.371C635.235 462.319 635.225 462.267 635.205 462.219C635.185 462.171 635.155 462.127 635.119 462.09C635.082 462.053 635.038 462.024 634.99 462.004C634.941 461.984 634.89 461.974 634.838 461.974H632.65C632.545 461.974 632.443 462.015 632.369 462.09C632.294 462.164 632.253 462.265 632.253 462.371V468.704C632.253 468.809 632.294 468.91 632.369 468.985C632.443 469.059 632.545 469.101 632.65 469.101H634.838C634.89 469.101 634.941 469.091 634.99 469.071C635.038 469.051 635.082 469.022 635.119 468.985C635.155 468.948 635.185 468.904 635.205 468.856C635.225 468.808 635.235 468.756 635.235 468.704V462.371ZM639.875 457.765C639.875 457.66 639.833 457.559 639.759 457.484C639.684 457.41 639.583 457.368 639.478 457.368H637.29C637.185 457.368 637.084 457.41 637.009 457.484C636.935 457.559 636.893 457.66 636.893 457.765V468.675C636.893 468.78 636.935 468.882 637.009 468.956C637.084 469.031 637.185 469.072 637.29 469.072H639.478C639.583 469.072 639.684 469.031 639.759 468.956C639.833 468.882 639.875 468.78 639.875 468.675V457.765ZM644.521 452.917C644.521 452.865 644.511 452.813 644.491 452.764C644.47 452.715 644.441 452.671 644.403 452.634C644.366 452.597 644.321 452.568 644.272 452.549C644.223 452.529 644.171 452.519 644.118 452.52H641.942C641.89 452.519 641.837 452.529 641.788 452.549C641.74 452.568 641.695 452.597 641.658 452.634C641.62 452.671 641.59 452.715 641.57 452.764C641.55 452.813 641.539 452.865 641.539 452.917V468.675C641.539 468.728 641.55 468.78 641.57 468.828C641.59 468.877 641.62 468.921 641.658 468.958C641.695 468.995 641.74 469.024 641.788 469.044C641.837 469.063 641.89 469.073 641.942 469.072H644.124C644.177 469.073 644.229 469.063 644.278 469.044C644.327 469.024 644.371 468.995 644.409 468.958C644.446 468.921 644.476 468.877 644.496 468.828C644.517 468.78 644.527 468.728 644.527 468.675L644.521 452.917ZM649.162 457.12C649.162 457.013 649.119 456.911 649.044 456.835C648.968 456.76 648.866 456.717 648.759 456.717H646.606C646.553 456.717 646.5 456.728 646.451 456.748C646.403 456.768 646.358 456.798 646.321 456.835C646.283 456.873 646.254 456.917 646.233 456.966C646.213 457.015 646.203 457.067 646.203 457.12V468.675C646.203 468.728 646.213 468.78 646.233 468.828C646.254 468.877 646.283 468.921 646.321 468.958C646.358 468.995 646.403 469.024 646.452 469.044C646.501 469.063 646.553 469.073 646.606 469.072H648.788C648.84 469.073 648.893 469.063 648.941 469.044C648.99 469.024 649.035 468.995 649.072 468.958C649.11 468.921 649.14 468.877 649.16 468.828C649.18 468.78 649.191 468.728 649.191 468.675L649.162 457.12ZM663.791 462.578H651.747V463.799H663.791V462.578ZM663.791 465.042H651.747V466.263H663.791V465.042ZM660.337 467.529H651.747V468.756H660.32L660.337 467.529Z" fill="#FE8100"/>
<path d="M325.033 645.565C327.136 645.565 328.841 643.872 328.841 641.785C328.841 639.697 327.136 638.005 325.033 638.005C322.929 638.005 321.225 639.697 321.225 641.785C321.225 643.872 322.929 645.565 325.033 645.565Z" fill="#FE8100"/>
<path d="M364.378 645.565C366.481 645.565 368.186 643.872 368.186 641.785C368.186 639.697 366.481 638.005 364.378 638.005C362.275 638.005 360.57 639.697 360.57 641.785C360.57 643.872 362.275 645.565 364.378 645.565Z" fill="#FE8100"/>
<path d="M328.486 646.883H321.579C321.047 646.883 320.605 647.323 320.605 647.85V666.398V680.374V681.078C320.605 682.132 321.402 683.012 322.376 683.099C322.819 683.187 323.261 683.012 323.704 682.836C324.324 682.484 324.678 681.869 324.678 681.166V666.398V666.046C324.678 665.87 324.855 665.607 325.033 665.607C325.298 665.519 325.652 665.782 325.652 666.046V666.398V681.078C325.652 681.781 326.007 682.396 326.627 682.748C326.981 683.012 327.424 683.099 327.955 683.012C329.018 682.924 329.726 681.957 329.726 680.99V680.287V666.398V647.85C329.549 647.323 329.106 646.883 328.486 646.883Z" fill="#2B5F8F"/>
<path d="M367.832 646.883H360.925C360.393 646.883 359.95 647.323 359.95 647.85V666.398V680.374V681.078C359.95 682.132 360.747 683.012 361.722 683.099C362.164 683.187 362.607 683.012 363.05 682.836C363.67 682.484 364.024 681.869 364.024 681.166V666.398V666.046C364.024 665.87 364.201 665.607 364.378 665.607C364.644 665.519 364.998 665.782 364.998 666.046V666.398V681.078C364.998 681.781 365.352 682.396 365.972 682.748C366.327 683.012 366.769 683.099 367.301 683.012C368.363 682.924 369.072 681.957 369.072 680.99V680.287V666.398V647.85C368.895 647.323 368.452 646.883 367.832 646.883Z" fill="#2B5F8F"/>
<path d="M317.682 661.563C316.62 661.563 315.645 660.684 315.645 659.541V649.432C315.645 648.378 316.531 647.411 317.682 647.411C318.745 647.411 319.719 648.29 319.719 649.432V659.541C319.631 660.596 318.745 661.563 317.682 661.563Z" fill="#2B5F8F"/>
<path d="M357.028 661.563C355.965 661.563 354.991 660.684 354.991 659.541V649.432C354.991 648.378 355.877 647.411 357.028 647.411C358.091 647.411 359.065 648.29 359.065 649.432V659.541C358.976 660.596 358.091 661.563 357.028 661.563Z" fill="#2B5F8F"/>
<path d="M332.383 661.563C331.32 661.563 330.346 660.684 330.346 659.541V649.432C330.346 648.378 331.232 647.411 332.383 647.411C333.446 647.411 334.42 648.29 334.42 649.432V659.541C334.42 660.596 333.534 661.563 332.383 661.563Z" fill="#2B5F8F"/>
<path d="M371.729 661.563C370.666 661.563 369.692 660.684 369.692 659.541V649.432C369.692 648.378 370.577 647.411 371.729 647.411C372.791 647.411 373.765 648.29 373.765 649.432V659.541C373.765 660.596 372.88 661.563 371.729 661.563Z" fill="#2B5F8F"/>
<line x1="330.847" y1="666.514" x2="358.568" y2="666.514" stroke="#FE8100" stroke-width="2" stroke-dasharray="3 3"/>
<defs>
<clipPath id="clip0">
<rect width="62.4076" height="83.2102" fill="white" transform="translate(368.044 325.56)"/>
</clipPath>
<clipPath id="clip1">
<rect width="36.6631" height="47.3938" fill="white" transform="translate(250.367 88.9525)"/>
</clipPath>
</defs>
</svg>
