<svg width="290" height="19" viewBox="0 0 290 19" fill="none" xmlns="http://www.w3.org/2000/svg">
<path d="M25.2504 8.30943C24.2152 11.4152 23.1799 14.345 22.1447 17.2954C22.0308 17.606 21.6995 18.0512 21.4407 18.0719C19.3702 18.2271 17.3514 18.2893 15.0635 18.3928C17.2583 12.4504 19.3805 6.64267 21.5028 0.8349H28.9877L35.7893 18.1029C33.5325 18.1029 31.4205 18.1029 29.319 18.1029C29.1101 18.0619 28.9142 17.9707 28.7483 17.8373C28.5824 17.7038 28.4514 17.5321 28.3665 17.3368C27.3002 14.345 26.3064 11.4152 25.2504 8.30943Z" fill="#F2F2F2"/>
<path d="M68.7932 18.0304H61.7846C60.7493 14.8625 59.7141 11.6326 58.5339 8.1334C57.4986 11.3013 56.4634 14.2103 55.4281 17.1505C55.2107 17.8544 54.9312 18.1339 54.1755 18.1132C52.312 18.1132 50.4485 18.1132 48.3987 18.1132C48.8543 16.8916 49.258 15.7943 49.6618 14.6866C51.2457 10.2867 52.7675 5.8869 54.4136 1.49743C54.4899 1.33271 54.6036 1.18802 54.7455 1.07482C54.8875 0.961618 55.0538 0.883012 55.2314 0.845221C57.3019 0.783106 59.3724 0.793459 61.4429 0.845221C61.6086 0.866632 61.7673 0.925247 61.9072 1.01668C62.047 1.10811 62.1644 1.23 62.2504 1.3732C64.459 6.77722 66.6434 12.195 68.8036 17.6267C68.876 17.6991 68.8139 17.8441 68.7932 18.0304Z" fill="#F2F2F2"/>
<path d="M141.882 12.5745C142.472 10.7421 143.042 8.9201 143.642 7.09805C144.242 5.27601 144.946 3.2055 145.713 1.27993C145.806 1.10161 145.938 0.946619 146.099 0.826515C146.26 0.706411 146.447 0.624299 146.644 0.586309C147.742 0.503488 148.86 0.586309 150.112 0.586309C150.475 6.33196 150.827 11.9741 151.148 17.7922H147.876C147.669 13.5684 147.452 9.3342 147.234 4.8412C146.955 5.77293 146.768 6.4976 146.53 7.21193C145.423 10.4937 144.242 13.7547 143.228 17.0572C142.928 18.02 142.369 17.9061 141.737 17.875C141.106 17.844 140.412 18.1753 140.101 17.0882C138.994 13.1957 137.689 9.34455 136.488 5.452C136.281 9.59301 136.074 13.6201 135.867 17.7612H132.617C132.979 12.0776 133.341 6.37337 133.704 0.638071H138.155C139.387 4.57203 140.629 8.53705 141.882 12.5745Z" fill="#F2F2F2"/>
<path d="M112.688 0.803837C113.972 0.803837 115.204 0.752074 116.436 0.803837C116.627 0.848043 116.806 0.937967 116.955 1.06595C117.105 1.19393 117.221 1.35617 117.295 1.53887C118.413 5.06908 119.479 8.60965 120.556 12.1502C120.626 12.3162 120.716 12.4728 120.825 12.6161C122.047 8.90987 123.299 5.20366 124.479 1.4664C124.697 0.762427 124.976 0.431146 125.742 0.503613C126.509 0.576081 127.482 0.441498 128.341 0.565728C128.542 0.622146 128.725 0.728693 128.874 0.87537C129.022 1.02205 129.131 1.20404 129.19 1.40428C129.355 3.47479 129.366 5.48318 129.49 7.53298C129.687 10.8976 129.925 14.2621 130.153 17.7199H126.819C126.612 13.5789 126.405 9.43785 126.188 5.03802C124.728 9.40679 123.32 13.5892 121.933 17.7406L121.643 17.813C119.345 17.8959 119.303 17.9062 118.62 15.7425C117.523 12.2537 116.477 8.76493 115.39 5.20366C115.173 9.46891 114.955 13.672 114.738 17.9787H111.632L112.688 0.803837Z" fill="#F2F2F2"/>
<path d="M5.29073 6.23901H0.435397C-0.320337 4.49979 0.176584 2.7088 0.000591142 0.876404H16.9787V6.23901H12.4961V18.2479H5.24932L5.29073 6.23901Z" fill="#F2F2F2"/>
<path d="M33.3255 0.824463H50.1276V6.00073H45.5518V18.0097H38.305V5.99038C36.9385 5.99038 35.7065 5.99038 34.4849 5.99038C33.6775 5.99038 33.3255 5.69015 33.3255 4.95512C33.3151 3.61965 33.3255 2.27382 33.3255 0.824463Z" fill="#F2F2F2"/>
<path d="M262.127 0.306885C263.162 0.306885 264.27 0.306885 265.377 0.306885C265.541 0.343567 265.696 0.414063 265.832 0.513879C265.967 0.613696 266.08 0.740642 266.164 0.886626C268.162 4.20979 270.129 7.55366 272.096 10.8975C272.293 11.2288 272.469 11.5704 272.717 12.0052V0.369H275.823V17.6267C274.922 17.6267 273.856 17.6267 272.81 17.6267C272.552 17.6267 272.241 17.2436 272.086 16.9745C269.891 13.2061 267.717 9.42747 265.533 5.64879C265.442 5.51079 265.338 5.38243 265.222 5.26575V17.5438H262.116L262.127 0.306885Z" fill="#F2F2F2"/>
<path d="M184.69 17.7923H184.597C182.454 18.134 180.921 17.7302 179.824 15.4837C178.116 11.9742 175.973 8.6821 174.078 5.42105V17.782H171.066V0.55536C172.201 0.505328 173.339 0.522612 174.472 0.607122C174.845 0.607122 175.217 1.23863 175.507 1.64238C176.615 3.43336 177.671 5.24506 178.737 7.05675C179.803 8.86844 180.808 10.618 181.843 12.4194V0.648533H184.752L184.69 17.7923Z" fill="#F2F2F2"/>
<path d="M251.567 17.8544C246.391 18.1961 243.409 14.0551 243.285 9.57241C243.233 6.6737 243.854 3.96134 246.173 2.00471C247.316 1.02098 248.706 0.368004 250.193 0.116236C251.68 -0.135532 253.208 0.0234595 254.611 0.576059C255.88 1.02064 257.002 1.80675 257.853 2.84788C258.704 3.88901 259.252 5.14479 259.435 6.477C259.939 8.58212 259.813 10.7891 259.073 12.8231C258.539 14.364 257.518 15.689 256.163 16.597C254.809 17.5049 253.195 17.9464 251.567 17.8544ZM246.836 8.9409C246.995 10.0744 247.248 11.1929 247.592 12.2848C247.822 13.0087 248.247 13.6553 248.821 14.1538C249.394 14.6523 250.093 14.9835 250.842 15.111C251.651 15.2477 252.482 15.1323 253.223 14.7804C253.964 14.4285 254.578 13.8572 254.983 13.144C255.701 11.882 256.079 10.455 256.079 9.00302C256.079 7.55107 255.701 6.12406 254.983 4.86201C254.634 4.2142 254.111 3.67699 253.472 3.31109C252.834 2.9452 252.106 2.76522 251.37 2.7915C250.569 2.79933 249.789 3.05395 249.137 3.52073C248.485 3.98752 247.992 4.64381 247.726 5.40034C247.281 6.59088 247.074 7.82283 246.784 8.9409H246.836Z" fill="#F2F2F2"/>
<path d="M101.559 0.555367C105.917 0.151619 109.841 3.94064 109.634 9.57242C109.489 14.8626 106.218 18.4031 101.248 18.31C96.4448 18.2168 93.1838 15.2042 93.2045 9.11691C93.1734 4.55144 96.6933 0.130914 101.559 0.555367ZM96.9625 9.34467C96.8365 10.1656 96.8828 11.0038 97.0985 11.8058C97.3142 12.6079 97.6944 13.3562 98.2151 14.0033C98.571 14.4842 99.0313 14.8782 99.5614 15.1555C100.092 15.4327 100.678 15.5861 101.276 15.604C101.874 15.622 102.468 15.504 103.014 15.259C103.56 15.014 104.043 14.6484 104.427 14.1896C105.384 12.889 105.927 11.3304 105.986 9.71663C106.045 8.10288 105.617 6.50871 104.758 5.14154C104.444 4.62345 104.014 4.18544 103.502 3.86217C102.99 3.5389 102.41 3.33923 101.807 3.27897C101.205 3.21871 100.596 3.29951 100.03 3.51497C99.4644 3.73044 98.9564 4.07465 98.5464 4.52039C97.9424 5.15757 97.4871 5.92067 97.2132 6.75483C96.9393 7.58898 96.8537 8.47346 96.9625 9.34467Z" fill="#F2F2F2"/>
<path d="M164.264 0.586304H167.37C167.432 0.710534 167.525 0.814059 167.525 0.917585C167.618 4.02334 167.846 7.06699 167.753 10.1313C167.691 12.4503 167.463 14.79 165.507 16.5913C163.374 18.5479 157.276 19.0966 155.289 15.6078C154.636 14.4454 154.257 13.1496 154.181 11.8188C154.036 8.12295 154.181 4.42709 154.181 0.638066H157.349C157.349 0.845117 157.401 1.03146 157.411 1.22816L157.659 11.7981C157.732 14.5001 159.927 16.1255 162.266 15.1006C163.933 14.3759 164.337 12.7712 164.337 11.1459C164.399 8.04013 164.337 4.93437 164.337 1.89072L164.264 0.586304Z" fill="#F2F2F2"/>
<path d="M224.133 17.7406C224.054 17.7786 223.97 17.8065 223.884 17.8234C220.313 18.0305 220.251 18.0408 219.236 13.9102C219.019 13.0302 218.687 12.8749 217.932 12.8749C216.981 12.9474 216.026 12.9474 215.074 12.8749C214.871 12.8159 214.656 12.8047 214.448 12.8423C214.239 12.8798 214.042 12.965 213.871 13.0912C213.701 13.2175 213.562 13.3814 213.466 13.5701C213.369 13.7588 213.317 13.9673 213.315 14.1793C213.315 14.3346 213.252 14.4899 213.211 14.6452C212.445 17.9787 212.445 17.9787 208.822 17.751C208.796 17.5447 208.796 17.3361 208.822 17.1298C210.471 11.9536 212.117 6.77729 213.76 1.60102C213.828 1.25059 214.031 0.941037 214.325 0.739484C214.62 0.537931 214.982 0.460634 215.333 0.524357C218.439 0.576119 218.439 0.524357 219.474 3.63012C221.006 8.30946 222.58 12.9888 224.133 17.7406ZM218.242 10.38L216.275 3.84752L214.35 10.38H218.242Z" fill="#F2F2F2"/>
<path d="M289.25 1.06265C288.515 3.60937 288.526 3.56796 285.793 3.13316C285.059 2.97751 284.297 3.02402 283.587 3.26774C283.049 3.49549 282.376 4.19947 282.376 4.69639C282.403 5.0606 282.51 5.4144 282.689 5.73281C282.868 6.05122 283.115 6.32648 283.411 6.53914C284.561 7.26382 285.917 7.65721 287.138 8.27836C288.025 8.68765 288.769 9.35089 289.278 10.184C289.787 11.0171 290.036 11.9824 289.996 12.9577C289.933 13.9925 289.551 14.9823 288.902 15.7907C288.253 16.5991 287.369 17.1863 286.372 17.4714C284.022 18.2082 281.489 18.102 279.208 17.1712C279.056 17.0858 278.927 16.9631 278.835 16.8147C278.743 16.6662 278.69 16.4968 278.68 16.3223C278.825 15.5831 279.015 14.8536 279.25 14.1379C280.356 14.5201 281.483 14.8416 282.625 15.1007C283.413 15.2726 284.236 15.204 284.985 14.904C285.688 14.4989 286.218 13.8509 286.476 13.0819C286.755 12.1813 286.093 11.4462 285.275 11.0114C283.826 10.2971 282.252 9.78983 280.896 8.94093C280.242 8.52491 279.703 7.95054 279.33 7.27102C278.957 6.59149 278.761 5.82879 278.761 5.05355C278.761 4.27831 278.957 3.51561 279.33 2.83608C279.703 2.15656 280.242 1.58219 280.896 1.16617C282.977 -0.272827 287.48 -0.32459 289.25 1.06265Z" fill="#F2F2F2"/>
<path d="M206.865 3.75424C203.086 2.32559 200.301 3.24697 198.842 5.13113C198.049 6.1914 197.585 7.46182 197.51 8.78375C197.434 10.1057 197.75 11.4206 198.417 12.5642C199.452 14.4795 201.72 15.9806 206.896 14.6347L207.476 17.2332C205.825 17.9643 204.008 18.2361 202.217 18.02C200.515 17.744 198.867 17.2062 197.33 16.4257C196.452 15.9512 195.708 15.2635 195.165 14.4259C194.622 13.5884 194.299 12.6278 194.224 11.6325C193.8 8.34041 193.841 5.07936 196.605 2.60511C198.158 1.14936 200.202 0.332403 202.33 0.3172C203.728 0.3172 205.115 0.451783 206.471 0.555308C207.507 0.638128 207.672 1.19716 207.341 2.07713C207.165 2.59476 207.051 3.13309 206.865 3.75424Z" fill="#F2F2F2"/>
<path d="M91.8689 4.01301C87.8625 2.58436 85.0673 3.66102 83.4523 5.70047C82.3032 7.14983 81.9823 11.177 83.3384 12.9472C84.6946 14.7175 86.2371 16.1462 91.8482 14.8521L92.428 17.3781C88.6493 19.107 82.5516 18.5169 80.243 14.6658C77.717 10.504 78.6798 2.69824 84.8913 0.990071C87.0697 0.42655 89.3501 0.383991 91.548 0.86584C92.107 0.979718 92.7489 1.25924 92.2934 2.17026C92.08 2.76571 91.9376 3.38422 91.8689 4.01301Z" fill="#F2F2F2"/>
<path d="M235.51 0.306993V3.24711H230.862V17.5233H227.373V3.32993H222.445V0.503691C224.651 0.441576 226.825 0.348403 228.988 0.317345C231.152 0.286288 233.274 0.306993 235.51 0.306993Z" fill="#F2F2F2"/>
<path d="M237.457 17.7717V0.389771H240.842V17.7717H237.457Z" fill="#F2F2F2"/>
<path d="M191.522 17.8026H188.21V0.617432H191.522V17.8026Z" fill="#F2F2F2"/>
</svg>
