<svg width="290" height="19" viewBox="0 0 290 19" fill="none" xmlns="http://www.w3.org/2000/svg">
<path d="M25.2504 8.30949C24.2152 11.4152 23.1799 14.345 22.1447 17.2955C22.0308 17.6061 21.6995 18.0512 21.4407 18.0719C19.3702 18.2272 17.3514 18.2893 15.0635 18.3929C17.2583 12.4505 19.3805 6.64273 21.5028 0.834961H28.9877L35.7893 18.103C33.5325 18.103 31.4205 18.103 29.319 18.103C29.1101 18.0619 28.9142 17.9708 28.7483 17.8373C28.5824 17.7039 28.4514 17.5322 28.3665 17.3369C27.3002 14.345 26.3064 11.4152 25.2504 8.30949Z" fill="#3D85C6"/>
<path d="M68.7932 18.0305H61.7846C60.7493 14.8626 59.7141 11.6326 58.5339 8.13346C57.4986 11.3013 56.4634 14.2104 55.4281 17.1505C55.2107 17.8545 54.9312 18.134 54.1755 18.1133C52.312 18.1133 50.4485 18.1133 48.3987 18.1133C48.8543 16.8917 49.258 15.7943 49.6618 14.6866C51.2457 10.2868 52.7675 5.88696 54.4136 1.49749C54.4899 1.33277 54.6036 1.18808 54.7455 1.07488C54.8875 0.961679 55.0538 0.883073 55.2314 0.845282C57.3019 0.783167 59.3724 0.79352 61.4429 0.845282C61.6086 0.866693 61.7673 0.925308 61.9072 1.01674C62.047 1.10817 62.1644 1.23006 62.2504 1.37326C64.459 6.77728 66.6434 12.1951 68.8036 17.6267C68.876 17.6992 68.8139 17.8441 68.7932 18.0305Z" fill="#3D85C6"/>
<path d="M141.882 12.5746C142.472 10.7422 143.042 8.92016 143.642 7.09811C144.242 5.27607 144.946 3.20556 145.713 1.27999C145.806 1.10167 145.938 0.94668 146.099 0.826576C146.26 0.706472 146.447 0.62436 146.644 0.58637C147.742 0.503549 148.86 0.58637 150.112 0.58637C150.475 6.33203 150.827 11.9742 151.148 17.7923H147.876C147.669 13.5684 147.452 9.33426 147.234 4.84126C146.955 5.77299 146.768 6.49766 146.53 7.21199C145.423 10.4937 144.242 13.7548 143.228 17.0572C142.928 18.02 142.369 17.9062 141.737 17.8751C141.106 17.844 140.412 18.1753 140.101 17.0883C138.994 13.1958 137.689 9.34461 136.488 5.45206C136.281 9.59307 136.074 13.6202 135.867 17.7612H132.617C132.979 12.0777 133.341 6.37343 133.704 0.638132H138.155C139.387 4.57209 140.629 8.53711 141.882 12.5746Z" fill="#3D85C6"/>
<path d="M112.688 0.803898C113.972 0.803898 115.204 0.752135 116.436 0.803898C116.627 0.848104 116.806 0.938028 116.955 1.06601C117.105 1.19399 117.221 1.35624 117.295 1.53893C118.413 5.06914 119.479 8.60971 120.556 12.1503C120.626 12.3163 120.716 12.4728 120.825 12.6161C122.047 8.90993 123.299 5.20372 124.479 1.46646C124.697 0.762488 124.976 0.431207 125.742 0.503674C126.509 0.576142 127.482 0.441559 128.341 0.565789C128.542 0.622207 128.725 0.728754 128.874 0.875431C129.022 1.02211 129.131 1.20411 129.19 1.40434C129.355 3.47485 129.366 5.48324 129.49 7.53304C129.687 10.8976 129.925 14.2622 130.153 17.7199H126.819C126.612 13.5789 126.405 9.43791 126.188 5.03808C124.728 9.40685 123.32 13.5893 121.933 17.7406L121.643 17.8131C119.345 17.8959 119.303 17.9063 118.62 15.7426C117.523 12.2538 116.477 8.76499 115.39 5.20372C115.173 9.46897 114.955 13.6721 114.738 17.9787H111.632L112.688 0.803898Z" fill="#3D85C6"/>
<path d="M5.29073 6.23907H0.435397C-0.320337 4.49985 0.176584 2.70886 0.000591142 0.876465H16.9787V6.23907H12.4961V18.248H5.24932L5.29073 6.23907Z" fill="#3D85C6"/>
<path d="M33.3255 0.824463H50.1276V6.00073H45.5518V18.0097H38.305V5.99038C36.9385 5.99038 35.7065 5.99038 34.4849 5.99038C33.6775 5.99038 33.3255 5.69015 33.3255 4.95512C33.3151 3.61965 33.3255 2.27382 33.3255 0.824463Z" fill="#3D85C6"/>
<path d="M262.127 0.306885C263.162 0.306885 264.27 0.306885 265.377 0.306885C265.541 0.343567 265.696 0.414063 265.832 0.513879C265.967 0.613696 266.08 0.740642 266.164 0.886626C268.162 4.20979 270.129 7.55366 272.096 10.8975C272.293 11.2288 272.469 11.5704 272.717 12.0052V0.369H275.823V17.6267C274.922 17.6267 273.856 17.6267 272.81 17.6267C272.552 17.6267 272.241 17.2436 272.086 16.9745C269.891 13.2061 267.717 9.42747 265.533 5.64879C265.442 5.51079 265.338 5.38243 265.222 5.26575V17.5438H262.116L262.127 0.306885Z" fill="#3D85C6"/>
<path d="M184.69 17.7922H184.597C182.454 18.1338 180.921 17.7301 179.824 15.4836C178.116 11.9741 175.973 8.68198 174.078 5.42093V17.7819H171.066V0.555238C172.201 0.505206 173.339 0.52249 174.472 0.607C174.845 0.607 175.217 1.2385 175.507 1.64225C176.615 3.43324 177.671 5.24493 178.737 7.05663C179.803 8.86832 180.808 10.6179 181.843 12.4192V0.648411H184.752L184.69 17.7922Z" fill="#3D85C6"/>
<path d="M251.567 17.8544C246.391 18.1961 243.409 14.0551 243.285 9.57241C243.233 6.6737 243.854 3.96134 246.173 2.00471C247.316 1.02098 248.706 0.368004 250.193 0.116236C251.68 -0.135532 253.208 0.0234595 254.611 0.576059C255.88 1.02064 257.002 1.80675 257.853 2.84788C258.704 3.88901 259.252 5.14479 259.435 6.477C259.939 8.58212 259.813 10.7891 259.073 12.8231C258.539 14.364 257.518 15.689 256.163 16.597C254.809 17.5049 253.195 17.9464 251.567 17.8544ZM246.836 8.9409C246.995 10.0744 247.248 11.1929 247.592 12.2848C247.822 13.0087 248.247 13.6553 248.821 14.1538C249.394 14.6523 250.093 14.9835 250.842 15.111C251.651 15.2477 252.482 15.1323 253.223 14.7804C253.964 14.4285 254.578 13.8572 254.983 13.144C255.701 11.882 256.079 10.455 256.079 9.00302C256.079 7.55107 255.701 6.12406 254.983 4.86201C254.634 4.2142 254.111 3.67699 253.472 3.31109C252.834 2.9452 252.106 2.76522 251.37 2.7915C250.569 2.79933 249.789 3.05395 249.137 3.52073C248.485 3.98752 247.992 4.64381 247.726 5.40034C247.281 6.59088 247.074 7.82283 246.784 8.9409H246.836Z" fill="#3D85C6"/>
<path d="M101.559 0.555306C105.917 0.151558 109.841 3.94058 109.634 9.57236C109.489 14.8625 106.218 18.4031 101.248 18.3099C96.4448 18.2167 93.1838 15.2041 93.2045 9.11685C93.1734 4.55138 96.6933 0.130853 101.559 0.555306ZM96.9625 9.3446C96.8365 10.1655 96.8828 11.0037 97.0985 11.8058C97.3142 12.6078 97.6944 13.3562 98.2151 14.0032C98.571 14.4842 99.0313 14.8781 99.5614 15.1554C100.092 15.4327 100.678 15.586 101.276 15.604C101.874 15.6219 102.468 15.504 103.014 15.259C103.56 15.014 104.043 14.6483 104.427 14.1896C105.384 12.8889 105.927 11.3303 105.986 9.71657C106.045 8.10282 105.617 6.50865 104.758 5.14148C104.444 4.62339 104.014 4.18538 103.502 3.86211C102.99 3.53884 102.41 3.33917 101.807 3.27891C101.205 3.21865 100.596 3.29945 100.03 3.51491C99.4644 3.73037 98.9564 4.07459 98.5464 4.52033C97.9424 5.15751 97.4871 5.92061 97.2132 6.75477C96.9393 7.58892 96.8537 8.4734 96.9625 9.3446Z" fill="#3D85C6"/>
<path d="M164.264 0.586426H167.37C167.432 0.710656 167.525 0.814181 167.525 0.917707C167.618 4.02347 167.846 7.06711 167.753 10.1315C167.691 12.4504 167.463 14.7901 165.507 16.5914C163.374 18.5481 157.276 19.0968 155.289 15.6079C154.636 14.4456 154.257 13.1497 154.181 11.8189C154.036 8.12307 154.181 4.42721 154.181 0.638188H157.349C157.349 0.845239 157.401 1.03158 157.411 1.22828L157.659 11.7982C157.732 14.5002 159.927 16.1256 162.266 15.1007C163.933 14.376 164.337 12.7714 164.337 11.146C164.399 8.04025 164.337 4.93449 164.337 1.89084L164.264 0.586426Z" fill="#3D85C6"/>
<path d="M224.133 17.7405C224.054 17.7785 223.97 17.8063 223.884 17.8233C220.313 18.0304 220.251 18.0407 219.236 13.9101C219.019 13.0301 218.687 12.8748 217.932 12.8748C216.981 12.9473 216.026 12.9473 215.074 12.8748C214.871 12.8158 214.656 12.8046 214.448 12.8421C214.239 12.8797 214.042 12.9649 213.871 13.0911C213.701 13.2174 213.562 13.3813 213.466 13.57C213.369 13.7587 213.317 13.9672 213.315 14.1792C213.315 14.3345 213.252 14.4898 213.211 14.6451C212.445 17.9786 212.445 17.9786 208.822 17.7508C208.796 17.5446 208.796 17.3359 208.822 17.1297C210.471 11.9534 212.117 6.77716 213.76 1.6009C213.828 1.25047 214.031 0.940915 214.325 0.739362C214.62 0.537809 214.982 0.460512 215.333 0.524234C218.439 0.575997 218.439 0.524234 219.474 3.62999C221.006 8.30934 222.58 12.9887 224.133 17.7405ZM218.242 10.3798L216.275 3.8474L214.35 10.3798H218.242Z" fill="#3D85C6"/>
<path d="M289.25 1.06259C288.515 3.60931 288.526 3.5679 285.793 3.13309C285.059 2.97744 284.297 3.02396 283.587 3.26768C283.049 3.49543 282.376 4.19941 282.376 4.69633C282.403 5.06053 282.51 5.41434 282.689 5.73275C282.868 6.05116 283.115 6.32641 283.411 6.53908C284.561 7.26375 285.917 7.65715 287.138 8.2783C288.025 8.68758 288.769 9.35083 289.278 10.1839C289.787 11.017 290.036 11.9824 289.996 12.9576C289.933 13.9924 289.551 14.9822 288.902 15.7906C288.253 16.599 287.369 17.1862 286.372 17.4713C284.022 18.2082 281.489 18.102 279.208 17.1711C279.056 17.0857 278.927 16.9631 278.835 16.8146C278.743 16.6662 278.69 16.4968 278.68 16.3222C278.825 15.5831 279.015 14.8536 279.25 14.1378C280.356 14.5201 281.483 14.8415 282.625 15.1006C283.413 15.2725 284.236 15.204 284.985 14.9039C285.688 14.4988 286.218 13.8508 286.476 13.0819C286.755 12.1812 286.093 11.4462 285.275 11.0114C283.826 10.297 282.252 9.78977 280.896 8.94086C280.242 8.52485 279.703 7.95048 279.33 7.27096C278.957 6.59143 278.761 5.82873 278.761 5.05349C278.761 4.27825 278.957 3.51555 279.33 2.83602C279.703 2.1565 280.242 1.58213 280.896 1.16611C282.977 -0.272888 287.48 -0.324651 289.25 1.06259Z" fill="#3D85C6"/>
<path d="M206.865 3.75418C203.086 2.32553 200.301 3.2469 198.842 5.13106C198.049 6.19134 197.585 7.46176 197.51 8.78369C197.434 10.1056 197.75 11.4205 198.417 12.5642C199.452 14.4794 201.72 15.9805 206.896 14.6347L207.476 17.2332C205.825 17.9642 204.008 18.2361 202.217 18.02C200.515 17.7439 198.867 17.2061 197.33 16.4257C196.452 15.9511 195.708 15.2635 195.165 14.4259C194.622 13.5883 194.299 12.6277 194.224 11.6325C193.8 8.34035 193.841 5.0793 196.605 2.60505C198.158 1.1493 200.202 0.332342 202.33 0.317139C203.728 0.317139 205.115 0.451722 206.471 0.555247C207.507 0.638067 207.672 1.1971 207.341 2.07707C207.165 2.5947 207.051 3.13303 206.865 3.75418Z" fill="#3D85C6"/>
<path d="M91.8689 4.01301C87.8625 2.58436 85.0673 3.66102 83.4523 5.70047C82.3032 7.14983 81.9823 11.177 83.3384 12.9472C84.6946 14.7175 86.2371 16.1462 91.8482 14.8521L92.428 17.3781C88.6493 19.107 82.5516 18.5169 80.243 14.6658C77.717 10.504 78.6798 2.69824 84.8913 0.990071C87.0697 0.42655 89.3501 0.383991 91.548 0.86584C92.107 0.979718 92.7489 1.25924 92.2934 2.17026C92.08 2.76571 91.9376 3.38422 91.8689 4.01301Z" fill="#3D85C6"/>
<path d="M235.51 0.307054V3.24717H230.862V17.5233H227.373V3.32999H222.445V0.503752C224.651 0.441637 226.825 0.348464 228.988 0.317406C231.152 0.286349 233.274 0.307054 235.51 0.307054Z" fill="#3D85C6"/>
<path d="M237.457 17.7718V0.389893H240.842V17.7718H237.457Z" fill="#3D85C6"/>
<path d="M191.522 17.8026H188.21V0.617432H191.522V17.8026Z" fill="#3D85C6"/>
</svg>
