<svg width="19" height="20" viewBox="0 0 19 20" fill="none" xmlns="http://www.w3.org/2000/svg">
<path d="M18.8258 17.7441C18.828 17.6857 18.8293 17.6281 18.8293 17.5719V17.5717C18.8249 15.3912 17.1658 15.0121 15.2533 14.5754C14.9824 14.5134 14.7091 14.4517 14.4382 14.3828C14.3307 14.3548 14.2124 14.3274 14.0884 14.2981C13.6949 14.2052 13.2582 14.1014 12.8749 13.9612C12.4118 13.7914 12.0273 13.5692 11.8958 13.2463C11.8176 13.0537 11.7738 12.6543 11.8393 12.3437C11.8693 12.2023 11.9818 12.043 12.112 11.8603C12.172 11.7765 12.2322 11.6905 12.2796 11.6117C12.5829 11.1068 12.7847 10.6637 12.9311 10.1752C12.9676 10.0563 12.9902 9.92788 13.0122 9.8041C13.0331 9.68743 13.0536 9.57432 13.0838 9.46943C13.3862 9.33654 13.708 8.84276 13.8751 8.20632C13.9458 7.93454 13.9789 7.6721 13.9789 7.43921H4.862C4.86178 7.67188 4.89489 7.93432 4.96622 8.2061C5.13244 8.84276 5.45444 9.33632 5.75733 9.46921C5.788 9.57432 5.80822 9.68699 5.82889 9.80388C5.85133 9.92788 5.87356 10.0563 5.91 10.175C6.05644 10.6639 6.25778 11.1065 6.56156 11.6114C6.60911 11.6901 6.66889 11.7763 6.72911 11.8601C6.85956 12.043 6.972 12.2021 7.00156 12.3437C7.06711 12.6541 7.02356 13.0532 6.94511 13.2461C6.81356 13.5688 6.42956 13.791 5.96622 13.9608C5.58267 14.1014 5.14622 14.2052 4.75244 14.2979C4.628 14.3274 4.51 14.3545 4.40289 14.3823C4.13178 14.4517 3.85844 14.5134 3.58756 14.5754C1.67556 15.0121 0.0164446 15.391 0.0120001 17.5717C0.0120001 17.627 0.0137778 17.6852 0.0157778 17.743C0.00555561 17.7837 3.51215e-08 17.8243 3.51215e-08 17.8652C-0.000444409 19.0443 4.21733 20.0001 9.42045 20.0001C14.6238 20.0001 18.8416 19.0443 18.8416 17.8652C18.8416 17.8248 18.8358 17.7843 18.8258 17.7441Z" fill="#3D85C6"/>
<path d="M4.42555 6.58533H14.3967C14.7856 6.58533 15.0998 6.27044 15.0998 5.88222C15.0998 5.49356 14.7856 5.17889 14.3967 5.17889H14.2053C14.2053 3.31044 13.1356 1.69289 11.576 0.902L11.1782 3.15422C11.1469 3.33267 10.992 3.458 10.8167 3.458C10.7958 3.458 10.7742 3.45622 10.7524 3.45267C10.5529 3.41733 10.4196 3.22689 10.4547 3.02689L10.9082 0.453333C10.7382 0.181111 10.436 0 10.0911 0H8.73067C8.386 0 8.08444 0.181111 7.91378 0.453333L8.36755 3.02689C8.40267 3.22667 8.26955 3.41733 8.06955 3.45267C8.048 3.45644 8.02644 3.458 8.00533 3.458C7.83 3.458 7.67467 3.33289 7.64378 3.15422L7.24644 0.902222C5.68644 1.69311 4.61689 3.31067 4.61689 5.17911H4.42555C4.03689 5.17911 3.72244 5.494 3.72244 5.88244C3.72244 6.27044 4.03689 6.58533 4.42555 6.58533Z" fill="#3D85C6"/>
</svg>
