<svg width="49" height="40" viewBox="0 0 49 40" fill="none" xmlns="http://www.w3.org/2000/svg">
<path d="M11.4333 20.4003C13.1313 20.4003 14.7766 19.9385 16.2357 19.1119C17.9765 21.8451 21.0261 23.667 24.5 23.667C27.9739 23.667 31.0237 21.845 32.7643 19.1119C34.2234 19.9384 35.8686 20.4003 37.5667 20.4003C42.9707 20.4003 47.3666 16.0043 47.3666 10.6003C47.3666 5.19624 42.9707 0.800293 37.5667 0.800293C34.1969 0.800293 31.1073 2.57556 29.3262 5.34798C27.8998 4.5367 26.255 4.06696 24.5 4.06696C22.745 4.06696 21.1002 4.5367 19.6738 5.34798C17.8927 2.57556 14.8031 0.800293 11.4333 0.800293C6.02928 0.800293 1.63333 5.19624 1.63333 10.6003C1.63333 16.0043 6.02928 20.4003 11.4333 20.4003ZM37.5667 4.06696C41.1699 4.06696 44.1 6.99781 44.1 10.6003C44.1 14.2028 41.1699 17.1336 37.5667 17.1336C36.2863 17.1336 35.0882 16.7615 34.0396 16.076C34.2043 15.3649 34.3 14.6276 34.3 13.867C34.3 11.3962 33.3739 9.1427 31.8599 7.41725C33.007 5.37983 35.1902 4.06696 37.5667 4.06696ZM31.0333 13.867C31.0333 17.4694 28.1033 20.4003 24.5 20.4003C20.8967 20.4003 17.9667 17.4694 17.9667 13.867C17.9667 10.2645 20.8967 7.33362 24.5 7.33362C28.1033 7.33362 31.0333 10.2645 31.0333 13.867ZM11.4333 4.06696C13.8098 4.06696 15.9929 5.37983 17.14 7.41725C15.6261 9.1427 14.7 11.3962 14.7 13.867C14.7 14.6276 14.7957 15.3649 14.9603 16.076C13.9117 16.7615 12.7137 17.1336 11.4333 17.1336C7.83003 17.1336 4.9 14.2028 4.9 10.6003C4.9 6.99781 7.83003 4.06696 11.4333 4.06696Z" fill="#3D85C6"/>
<path d="M37.5667 22.0332C34.5058 22.0332 31.6394 23.1912 29.5037 25.2879C29.2231 25.5601 28.9817 25.8332 28.7485 26.1077C27.4333 25.5914 26.0018 25.2999 24.5 25.2999C22.9996 25.2999 21.5693 25.5911 20.2553 26.1064C18.1006 23.5337 14.8965 22.0332 11.4333 22.0332C8.37246 22.0332 5.50613 23.1912 3.37512 25.283C1.19789 27.3789 0 30.1871 0 33.189V35.0999C0 36.0018 0.73059 36.7332 1.63333 36.7332C2.53608 36.7332 3.26667 36.0018 3.26667 35.0999V33.189C3.26667 31.0827 4.11045 29.1104 5.65133 27.6254C7.17931 26.1254 9.23209 25.2999 11.4333 25.2999C13.711 25.2999 15.8187 26.2098 17.3411 27.7719C14.7385 29.8196 13.0667 32.9517 13.0667 36.4612V38.3665C13.0667 39.2685 13.7973 39.9999 14.7 39.9999C15.6027 39.9999 16.3333 39.2685 16.3333 38.3665V36.4612C16.3333 32.1084 19.9972 28.5665 24.5 28.5665C29.0028 28.5665 32.6667 32.1084 32.6667 36.4612V38.3665C32.6667 39.2685 33.3972 39.9999 34.3 39.9999C35.2027 39.9999 35.9333 39.2685 35.9333 38.3665V36.4612C35.9333 32.9489 34.259 29.8151 31.6528 27.7677C31.7 27.7198 31.7348 27.6738 31.7845 27.6256C33.3126 26.1254 35.3654 25.2999 37.5667 25.2999C42.0694 25.2999 45.7333 28.8393 45.7333 33.189V35.0999C45.7333 36.0018 46.4639 36.7332 47.3666 36.7332C48.2694 36.7332 49 36.0018 49 35.0999V33.189C49 27.0377 43.8703 22.0332 37.5667 22.0332Z" fill="#3D85C6"/>
</svg>
