<svg width="20" height="20" viewBox="0 0 20 20" fill="none" xmlns="http://www.w3.org/2000/svg">
<path d="M7.39183 1.80288V9.25481C7.39183 9.73296 7.20188 10.1915 6.86377 10.5296C6.52567 10.8677 6.0671 11.0577 5.58894 11.0577H1.80288C1.32473 11.0577 0.866159 10.8677 0.528053 10.5296C0.189947 10.1915 0 9.73296 0 9.25481V1.80288C0 1.32473 0.189947 0.866159 0.528053 0.528053C0.866159 0.189947 1.32473 0 1.80288 0H5.58894C6.0671 0 6.52567 0.189947 6.86377 0.528053C7.20188 0.866159 7.39183 1.32473 7.39183 1.80288ZM5.58894 12.4279H1.80288C1.32473 12.4279 0.866159 12.6178 0.528053 12.9559C0.189947 13.294 0 13.7526 0 14.2308V18.1971C0 18.6753 0.189947 19.1338 0.528053 19.4719C0.866159 19.8101 1.32473 20 1.80288 20H5.58894C6.0671 20 6.52567 19.8101 6.86377 19.4719C7.20188 19.1338 7.39183 18.6753 7.39183 18.1971V14.2308C7.39183 13.7526 7.20188 13.294 6.86377 12.9559C6.52567 12.6178 6.0671 12.4279 5.58894 12.4279ZM18.1971 7.99279H10.5649C10.0868 7.99279 9.62818 8.18273 9.29007 8.52084C8.95197 8.85895 8.76202 9.31752 8.76202 9.79567V18.1971C8.76202 18.6753 8.95197 19.1338 9.29007 19.4719C9.62818 19.8101 10.0868 20 10.5649 20H18.1971C18.6753 20 19.1338 19.8101 19.4719 19.4719C19.8101 19.1338 20 18.6753 20 18.1971V9.79567C20 9.31752 19.8101 8.85895 19.4719 8.52084C19.1338 8.18273 18.6753 7.99279 18.1971 7.99279ZM18.1971 0H10.5649C10.0868 0 9.62818 0.189947 9.29007 0.528053C8.95197 0.866159 8.76202 1.32473 8.76202 1.80288V4.81971C8.76202 5.29787 8.95197 5.75644 9.29007 6.09454C9.62818 6.43265 10.0868 6.6226 10.5649 6.6226H18.1971C18.6753 6.6226 19.1338 6.43265 19.4719 6.09454C19.8101 5.75644 20 5.29787 20 4.81971V1.80288C20 1.32473 19.8101 0.866159 19.4719 0.528053C19.1338 0.189947 18.6753 0 18.1971 0Z" fill="#2B5F8F"/>
</svg>
