<svg width="35" height="35" viewBox="0 0 35 35" fill="none" xmlns="http://www.w3.org/2000/svg">
<path d="M29.9431 29.7902C33.0669 26.628 35 22.2858 35 17.5C35 12.7142 33.0673 8.37236 29.9431 5.20979C29.9209 5.18144 29.9008 5.152 29.8746 5.12579C29.8484 5.09959 29.8189 5.07949 29.7906 5.05723C26.628 1.93272 22.2858 0 17.5 0C12.7142 0 8.37236 1.93272 5.20979 5.05651C5.18108 5.07877 5.15164 5.09923 5.12544 5.12544C5.09923 5.15164 5.07913 5.18108 5.05687 5.20944C1.93272 8.37236 0 12.7142 0 17.5C0 22.2858 1.93272 26.628 5.05687 29.7902C5.07913 29.8186 5.09959 29.848 5.12544 29.8742C5.15164 29.9004 5.18108 29.9209 5.20979 29.9428C8.37236 33.0673 12.7142 35 17.5 35C22.2858 35 26.628 33.0669 29.7902 29.9431C29.8186 29.9205 29.848 29.9008 29.8742 29.8746C29.9004 29.8484 29.9209 29.8186 29.9431 29.7902ZM27.067 25.7981C26.7163 25.4473 26.1484 25.4473 25.7981 25.7981C25.4477 26.1488 25.4473 26.7167 25.7981 27.067L27.9454 29.2144C25.3766 31.5075 22.0529 32.9707 18.3974 33.1778V30.1323C18.3974 29.6366 17.9957 29.2349 17.5 29.2349C17.0043 29.2349 16.6026 29.6369 16.6026 30.1323V33.1775C12.9471 32.9704 9.62339 31.5075 7.05421 29.2144L9.20159 27.067C9.55231 26.7163 9.55231 26.1484 9.20159 25.7981C8.85123 25.4473 8.28262 25.4473 7.93262 25.7981L5.78523 27.9454C3.49246 25.3766 2.02928 22.0529 1.82215 18.3974H4.86733C5.36308 18.3974 5.76477 17.9957 5.76477 17.5C5.76477 17.0043 5.36308 16.6026 4.86769 16.6026H1.82251C2.02964 12.9471 3.49246 9.62339 5.78559 7.05421L7.93297 9.20159C8.10815 9.37677 8.3379 9.46436 8.56764 9.46436C8.79739 9.46436 9.02713 9.37677 9.20231 9.20159C9.55303 8.85123 9.55303 8.28297 9.20231 7.93262L7.05421 5.78523C9.62339 3.49246 12.9471 2.02928 16.6026 1.82215V4.86733C16.6026 5.36308 17.0043 5.76477 17.5 5.76477C17.9957 5.76477 18.3974 5.36308 18.3974 4.86769V1.82251C22.0529 2.02964 25.3766 3.49246 27.9458 5.78559L25.7984 7.93297C25.4477 8.28333 25.4477 8.85159 25.7984 9.20195C25.9736 9.37713 26.2033 9.46472 26.4331 9.46472C26.6628 9.46472 26.8922 9.37713 27.0677 9.20195L29.2151 7.05456C31.5075 9.62339 32.9707 12.9471 33.1778 16.6026H30.1323C29.6366 16.6026 29.2349 17.0043 29.2349 17.5C29.2349 17.9957 29.6366 18.3974 30.1323 18.3974H33.1775C32.9704 22.0529 31.5075 25.3766 29.2144 27.9458L27.067 25.7981Z" fill="#3D85C6"/>
<path d="M17.5 7.66992C17.0043 7.66992 16.6026 8.07161 16.6026 8.56736V16.9555L10.4989 20.1328C10.0592 20.3618 9.88832 20.9035 10.1173 21.3433C10.2774 21.6505 10.5901 21.8268 10.9143 21.8268C11.0539 21.8268 11.1957 21.7938 11.3278 21.7252L17.9146 18.2963C17.929 18.2887 17.9405 18.2783 17.9541 18.2704C17.9818 18.2539 18.0083 18.2371 18.0338 18.218C18.0568 18.2008 18.0787 18.1825 18.0999 18.1638C18.1218 18.1441 18.1419 18.1243 18.1612 18.1028C18.1813 18.0809 18.1997 18.0586 18.2172 18.0353C18.2345 18.0127 18.2503 17.989 18.265 17.9646C18.2801 17.9402 18.2933 17.9151 18.3059 17.8892C18.3185 17.863 18.3296 17.8364 18.34 17.8084C18.3501 17.7812 18.3587 17.7535 18.3659 17.7255C18.373 17.6986 18.3788 17.6713 18.3834 17.6433C18.3888 17.6114 18.3913 17.5791 18.3931 17.5464C18.3935 17.5302 18.3974 17.5159 18.3974 17.5001V8.56736C18.3974 8.07161 17.9958 7.66992 17.5 7.66992Z" fill="#3D85C6"/>
</svg>
