<svg width="44" height="41" viewBox="0 0 44 41" fill="none" xmlns="http://www.w3.org/2000/svg">
<path d="M18.8748 2.07071C20.2318 2.07071 21.5477 3.06465 22.7402 4.9697L34.5832 26.8778L34.6243 26.9606L34.7065 27.0434C35.4056 28.0788 35.6935 28.8242 35.6935 29.6525C35.6935 31.5162 34.1308 32.9242 32.0336 32.9242H5.71589C3.61869 32.9242 2.05607 31.5162 2.05607 29.6525C2.05607 28.8242 2.34393 28.0788 3.04299 27.0434L3.12523 26.9606L3.16636 26.8778L15.0093 4.9697C16.2019 3.06465 17.5178 2.07071 18.8748 2.07071ZM18.8748 0C16.7364 0 14.8037 1.32525 13.2411 3.93434L1.35701 25.8838C0.452336 27.2091 0 28.3687 0 29.6939C0 32.7586 2.59065 35.0364 5.71589 35.0364H32.0336C35.2 35.0364 37.7495 32.8 37.7495 29.6939C37.7495 28.3687 37.2561 27.2091 36.3925 25.8838L24.5084 3.93434C22.9458 1.32525 21.0131 0 18.8748 0Z" fill="#3D85C6"/>
<path d="M16.9832 10.3948C16.942 9.85643 17.1477 9.35946 17.5177 8.94532C18.2579 8.19987 19.4916 8.19987 20.2318 8.94532C20.643 9.35946 20.8486 9.93926 20.7663 10.5191C20.7663 10.5605 20.7663 10.6019 20.7663 10.6433L19.5327 22.2807C19.4916 22.6534 19.2037 22.9019 18.8748 22.9019C18.5869 22.9019 18.2991 22.5706 18.2579 22.2807L16.942 10.6433C16.942 10.5605 16.942 10.4776 16.9832 10.3948Z" fill="#3D85C6"/>
<path d="M18.8748 28.3275C19.9422 28.3275 20.8075 27.456 20.8075 26.381C20.8075 25.306 19.9422 24.4346 18.8748 24.4346C17.8074 24.4346 16.942 25.306 16.942 26.381C16.942 27.456 17.8074 28.3275 18.8748 28.3275Z" fill="#3D85C6"/>
<path d="M26.35 25.5768C26.35 21.6467 29.5837 18.436 33.5758 18.436C37.5649 18.436 40.8039 21.6445 40.85 25.5808C40.8491 26.2262 40.6314 27.1692 40.2215 28.3395C39.817 29.4944 39.2494 30.805 38.603 32.158C37.3111 34.8623 35.7281 37.6868 34.5708 39.6904C34.135 40.4362 33.0652 40.4362 32.6292 39.6906C31.472 37.6869 29.889 34.8623 28.597 32.158C27.9506 30.805 27.383 29.4944 26.9785 28.3395C26.5678 27.1667 26.35 26.2223 26.35 25.5768ZM29.1038 25.5768C29.1038 28.0613 31.1454 30.0092 33.5758 30.0092C36.0063 30.0092 38.0479 28.0613 38.0479 25.5768C38.0479 23.0924 36.0063 21.1445 33.5758 21.1445C31.0843 21.1445 29.1038 23.1528 29.1038 25.5768Z" fill="#3D85C6" stroke="white" stroke-width="1.5"/>
</svg>
