<svg width="22" height="22" viewBox="0 0 22 22" fill="none" xmlns="http://www.w3.org/2000/svg">
<path fill-rule="evenodd" clip-rule="evenodd" d="M0.916656 11.0001C0.916656 16.569 5.43112 21.0834 11 21.0834C16.5689 21.0834 21.0833 16.569 21.0833 11.0001C21.0833 5.43121 16.5689 0.916748 11 0.916748C5.43112 0.916748 0.916656 5.43121 0.916656 11.0001ZM19.25 11.0001C19.25 15.5564 15.5563 19.2501 11 19.2501C6.44364 19.2501 2.74999 15.5564 2.74999 11.0001C2.74999 6.44373 6.44364 2.75008 11 2.75008C15.5563 2.75008 19.25 6.44373 19.25 11.0001ZM11.92 12.8319H12.836V14.6652H9.16937V12.8319H10.086V10.9986H9.16937V9.16523H11.92V12.8319ZM11.9173 7.3319C11.9173 7.83816 11.5067 8.24857 11.0003 8.24857C10.4939 8.24857 10.0833 7.83816 10.0833 7.3319C10.0833 6.82564 10.4939 6.41523 11.0003 6.41523C11.5067 6.41523 11.9173 6.82564 11.9173 7.3319Z" fill="#3D85C6"/>
</svg>
