<svg width="24" height="24" viewBox="0 0 24 24" fill="none" xmlns="http://www.w3.org/2000/svg">
<path d="M15.5146 16.725H19.1521C19.4405 16.725 19.7172 16.6105 19.9211 16.4065C20.125 16.2026 20.2396 15.926 20.2396 15.6375C20.2396 15.3491 20.125 15.0725 19.9211 14.8686C19.7172 14.6646 19.4405 14.55 19.1521 14.55H15.5146C15.2262 14.55 14.9496 14.6646 14.7456 14.8686C14.5417 15.0725 14.4271 15.3491 14.4271 15.6375C14.4271 15.926 14.5417 16.2026 14.7456 16.4065C14.9496 16.6105 15.2262 16.725 15.5146 16.725ZM15.5146 15.3H19.1521C19.1964 15.3 19.2403 15.3088 19.2813 15.3257C19.3222 15.3427 19.3594 15.3676 19.3908 15.3989C19.4221 15.4302 19.447 15.4674 19.4639 15.5084C19.4809 15.5493 19.4896 15.5932 19.4896 15.6375C19.4896 15.6819 19.4809 15.7258 19.4639 15.7667C19.447 15.8077 19.4221 15.8449 19.3908 15.8762C19.3594 15.9075 19.3222 15.9324 19.2813 15.9494C19.2403 15.9663 19.1964 15.975 19.1521 15.975H15.5146C15.4251 15.975 15.3393 15.9395 15.276 15.8762C15.2127 15.8129 15.1771 15.7271 15.1771 15.6375C15.1771 15.548 15.2127 15.4622 15.276 15.3989C15.3393 15.3356 15.4251 15.3 15.5146 15.3Z" fill="#2B5F8F"/>
<path d="M17.6259 18.15C17.5558 18.0813 17.4615 18.0428 17.3634 18.0428C17.2652 18.0428 17.171 18.0813 17.1009 18.15L16.3884 18.8625C16.3342 18.9348 16.3079 19.0241 16.3143 19.1141C16.3207 19.2042 16.3594 19.2889 16.4232 19.3527C16.487 19.4165 16.5717 19.4552 16.6618 19.4616C16.7518 19.468 16.8411 19.4417 16.9134 19.3875L16.9884 19.3125V21.6C16.9884 21.6995 17.0279 21.7949 17.0982 21.8652C17.1685 21.9355 17.2639 21.975 17.3634 21.975C17.4628 21.975 17.5582 21.9355 17.6285 21.8652C17.6988 21.7949 17.7384 21.6995 17.7384 21.6V19.3125L17.8134 19.3875C17.8456 19.4305 17.8867 19.4661 17.9339 19.4918C17.981 19.5175 18.0332 19.5328 18.0868 19.5366C18.1404 19.5404 18.1941 19.5327 18.2445 19.5139C18.2948 19.4951 18.3405 19.4657 18.3785 19.4277C18.4165 19.3897 18.4459 19.344 18.4647 19.2937C18.4835 19.2433 18.4912 19.1896 18.4874 19.136C18.4836 19.0824 18.4683 19.0302 18.4426 18.983C18.4169 18.9359 18.3813 18.8948 18.3384 18.8625L17.6259 18.15Z" fill="#2B5F8F"/>
<path d="M15.5146 4.38752H19.1521C19.4405 4.38752 19.7172 4.27295 19.9211 4.069C20.125 3.86506 20.2396 3.58845 20.2396 3.30002C20.2396 3.0116 20.125 2.73499 19.9211 2.53105C19.7172 2.3271 19.4405 2.21252 19.1521 2.21252H15.5146C15.2262 2.21252 14.9496 2.3271 14.7456 2.53105C14.5417 2.73499 14.4271 3.0116 14.4271 3.30002C14.4271 3.58845 14.5417 3.86506 14.7456 4.069C14.9496 4.27295 15.2262 4.38752 15.5146 4.38752ZM15.5146 2.92502H19.1521C19.2416 2.92502 19.3275 2.96058 19.3908 3.02388C19.4541 3.08717 19.4896 3.17301 19.4896 3.26252C19.4896 3.35203 19.4541 3.43788 19.3908 3.50117C19.3275 3.56447 19.2416 3.60002 19.1521 3.60002H15.5146C15.4251 3.60002 15.3393 3.56447 15.276 3.50117C15.2127 3.43788 15.1771 3.35203 15.1771 3.26252C15.1771 3.17301 15.2127 3.08717 15.276 3.02388C15.3393 2.96058 15.4251 2.92502 15.5146 2.92502Z" fill="#2B5F8F"/>
<path d="M17.6259 5.77504C17.5558 5.70633 17.4615 5.66785 17.3634 5.66785C17.2652 5.66785 17.171 5.70633 17.1009 5.77504L16.3884 6.48754C16.3342 6.55976 16.3079 6.64909 16.3143 6.73913C16.3207 6.82917 16.3594 6.91388 16.4232 6.97771C16.487 7.04154 16.5717 7.0802 16.6618 7.0866C16.7518 7.093 16.8411 7.0667 16.9134 7.01254L16.9884 6.93754V9.22504C16.9884 9.3245 17.0279 9.41988 17.0982 9.49021C17.1685 9.56053 17.2639 9.60004 17.3634 9.60004C17.4628 9.60004 17.5582 9.56053 17.6285 9.49021C17.6988 9.41988 17.7384 9.3245 17.7384 9.22504V6.93754L17.8134 7.01254C17.8456 7.05553 17.8867 7.09108 17.9339 7.11679C17.981 7.14251 18.0332 7.15779 18.0868 7.1616C18.1404 7.16541 18.1941 7.15766 18.2445 7.13887C18.2948 7.12008 18.3405 7.0907 18.3785 7.05271C18.4165 7.01472 18.4459 6.96901 18.4647 6.91867C18.4835 6.86834 18.4912 6.81455 18.4874 6.76096C18.4836 6.70737 18.4683 6.65522 18.4426 6.60805C18.4169 6.56088 18.3813 6.51978 18.3384 6.48754L17.6259 5.77504Z" fill="#2B5F8F"/>
<path d="M12.2522 11.6625H22.4147C22.6136 11.6625 22.8044 11.5835 22.945 11.4428C23.0857 11.3022 23.1647 11.1114 23.1647 10.9125V0.75C23.1647 0.551088 23.0857 0.360322 22.945 0.21967C22.8044 0.0790176 22.6136 0 22.4147 0L12.2522 0C12.0533 0 11.8625 0.0790176 11.7219 0.21967C11.5812 0.360322 11.5022 0.551088 11.5022 0.75V23.25C11.5022 23.4489 11.5812 23.6397 11.7219 23.7803C11.8625 23.921 12.0533 24 12.2522 24H22.4147C22.6136 24 22.8044 23.921 22.945 23.7803C23.0857 23.6397 23.1647 23.4489 23.1647 23.25V13.0875C23.1647 12.8886 23.0857 12.6978 22.945 12.5572C22.8044 12.4165 22.6136 12.3375 22.4147 12.3375H12.2522C12.0533 12.3375 11.8625 12.4165 11.7219 12.5572C11.5812 12.6978 11.5022 12.8886 11.5022 13.0875V10.9125C11.5022 11.1114 11.5812 11.3022 11.7219 11.4428C11.8625 11.5835 12.0533 11.6625 12.2522 11.6625ZM22.4147 0.75V10.9125H12.2522V0.75H22.4147ZM12.2522 13.0875H22.4147V23.25H12.2522V13.0875Z" fill="#2B5F8F"/>
<path d="M10.9509 1.29371H8.32587C8.23814 1.29194 8.15257 1.32099 8.08405 1.37581C8.01553 1.43062 7.9684 1.50773 7.95087 1.59371L7.65087 3.24371C6.92661 3.44264 6.23276 3.73911 5.58837 4.12496L4.20087 3.18746C4.16959 3.15882 4.13273 3.13696 4.0926 3.12325C4.05246 3.10954 4.00993 3.10429 3.96767 3.10781C3.92541 3.11133 3.88433 3.12356 3.84702 3.14372C3.80971 3.16388 3.77697 3.19154 3.75087 3.22496L1.91337 5.06246C1.84984 5.1258 1.81112 5.20981 1.80424 5.29926C1.79736 5.3887 1.82277 5.47765 1.87587 5.54996L2.81337 6.93746C2.43403 7.58285 2.14389 8.27666 1.95087 8.99996L0.338368 9.29996C0.293187 9.2966 0.247812 9.30302 0.20534 9.31879C0.162868 9.33457 0.124298 9.35932 0.0922614 9.39135C0.0602251 9.42339 0.0354765 9.46196 0.0197042 9.50443C0.00393185 9.5469 -0.002493 9.59228 0.000867994 9.63746V12.2625C-0.000901229 12.3502 0.0281504 12.4358 0.082966 12.5043C0.137781 12.5728 0.21489 12.6199 0.300868 12.6375L1.91337 12.9375C2.1064 13.6608 2.39653 14.3546 2.77587 15L1.83837 16.3875C1.78941 16.4613 1.76651 16.5493 1.7733 16.6377C1.78009 16.726 1.81619 16.8095 1.87587 16.875L3.71337 18.7125C3.77671 18.776 3.86072 18.8147 3.95017 18.8216C4.03961 18.8285 4.12856 18.8031 4.20087 18.75L5.58837 17.8125C6.23376 18.1918 6.92757 18.4819 7.65087 18.675L7.95087 20.2875C7.9684 20.3734 8.01553 20.4505 8.08405 20.5054C8.15257 20.5602 8.23814 20.5892 8.32587 20.5875H10.9509C11.0386 20.5892 11.1242 20.5602 11.1927 20.5054C11.2612 20.4505 11.3083 20.3734 11.3259 20.2875L11.6259 18.7875V14.4562C11.0332 14.8016 10.3617 14.9889 9.67587 15C8.60094 14.9921 7.57256 14.5603 6.8142 13.7984C6.05585 13.0365 5.6288 12.0062 5.62587 10.9312C5.62686 9.86733 6.04992 8.84731 6.8022 8.09504C7.55447 7.34276 8.57449 6.9197 9.63837 6.91871C10.3239 6.91419 10.9978 7.09563 11.5884 7.44371V3.09371L11.2884 1.59371C11.2875 1.55131 11.2779 1.50954 11.2602 1.47102C11.2424 1.43251 11.2169 1.39808 11.1852 1.36991C11.1535 1.34173 11.1163 1.32042 11.076 1.30731C11.0357 1.29419 10.9931 1.28956 10.9509 1.29371Z" fill="#2B5F8F"/>
</svg>
