<svg width="323" height="66" viewBox="0 0 323 66" fill="none" xmlns="http://www.w3.org/2000/svg">
<path d="M76.9565 37.7059C77.4598 46.5875 77.9631 55.3951 78.4368 64.2471H73.3891C73.1226 57.6451 72.8562 51.0875 72.5897 44.53H72.3233C71.7016 46.5579 71.1391 48.6007 70.4582 50.6139C69.0667 54.729 67.6605 58.8293 66.1802 62.9149C66.0395 63.1859 65.8426 63.4238 65.6027 63.6127C65.3627 63.8016 65.0852 63.9372 64.7887 64.0103C63.7542 64.0929 62.7147 64.0929 61.6802 64.0103L56.0256 44.2783L55.0782 63.8474H50.0601C50.667 55.2027 51.2739 46.5431 51.8956 37.7059C54.0124 37.7059 55.9664 37.6171 57.8167 37.7059C58.246 37.7059 58.8233 38.5201 59.0009 39.053C60.792 44.7224 62.5091 50.4214 64.2114 55.9724C65.2624 52.7158 66.3726 49.2668 67.5124 45.8326C68.3118 43.479 69.1111 41.1105 70.0289 38.8013C70.159 38.5266 70.3487 38.2844 70.5843 38.0923C70.8199 37.9003 71.0954 37.7632 71.3907 37.6911C73.167 37.6171 74.8841 37.7059 76.9565 37.7059Z" fill="#3D85C6"/>
<path d="M88.1769 45.1665C87.8364 51.4724 87.496 57.7931 87.1555 64.2175H82.1522C82.7887 55.4247 83.4253 46.6467 84.0766 37.7059C86.0453 37.7059 87.9845 37.7059 89.9236 37.7059C90.1596 37.7453 90.3825 37.8413 90.5733 37.9856C90.7641 38.13 90.917 38.3185 91.019 38.5349C92.8693 44.4559 94.6457 50.377 96.3924 56.1204L102.447 37.9872H109.093C109.611 46.7652 110.114 55.4395 110.573 64.1139C110.359 64.2031 110.136 64.2677 109.907 64.3063C105.2 64.4691 105.2 64.4691 105.2 59.7471V44.1451H104.637C103.542 47.5201 102.447 50.9247 101.336 54.2997C100.463 56.9346 99.4713 59.5399 98.7016 62.2043C98.6104 62.7928 98.2896 63.3211 97.8096 63.6735C97.3296 64.0258 96.7295 64.1736 96.1407 64.0843C94.4088 64.0843 93.5799 63.729 93.1062 61.9231C91.6259 56.3425 89.9384 50.8211 88.3249 45.2701L88.1769 45.1665Z" fill="#3D85C6"/>
<path d="M211.764 25.9082H201.61C200.129 21.2602 198.649 16.5381 196.917 11.3128C195.067 16.4641 193.379 21.1862 191.692 25.923H181.863C182.781 23.3178 183.595 20.8161 184.513 18.3441C186.585 12.7635 188.746 7.21247 190.789 1.60226C190.871 1.21191 191.099 0.867595 191.426 0.639361C191.754 0.411128 192.156 0.316113 192.55 0.373643C195.333 0.373643 198.116 0.373643 200.899 0.373643C201.188 0.382635 201.471 0.456494 201.727 0.589744C201.983 0.722994 202.206 0.912217 202.379 1.14338C205.518 9.048 208.582 16.9822 211.646 24.9164C211.727 25.2408 211.767 25.574 211.764 25.9082Z" fill="#3D85C6"/>
<path d="M148.113 11.15C146.411 16.1089 144.797 20.8161 143.169 25.5382H133.31C135.249 20.3128 137.144 15.1763 139.024 10.1434C140.119 7.18287 141.244 4.29635 142.236 1.33582C142.267 1.13153 142.338 0.935318 142.444 0.75844C142.551 0.581562 142.692 0.4275 142.858 0.305096C143.025 0.182692 143.214 0.0943541 143.414 0.0451523C143.615 -0.00404944 143.823 -0.0131468 144.027 0.0183822C146.899 0.196014 149.786 0.210817 152.657 0.462462C153.175 0.462462 153.856 1.26181 154.138 1.83911C155.81 5.96905 157.365 10.1434 158.963 14.3029C160.305 17.8062 161.647 21.3194 162.99 24.8424C163.099 25.1912 163.183 25.5474 163.241 25.9082H153.087L148.113 11.15Z" fill="#3D85C6"/>
<path d="M118.507 7.87858H111.447V0.166397H136.078V7.78977H129.106V25.553H118.507V7.87858Z" fill="#3D85C6"/>
<path d="M167.105 25.8786V7.9082H160.073V0.506866H184.735V7.81938H177.792V25.8786H167.105Z" fill="#3D85C6"/>
<path d="M280.537 38.5053L281.189 38.4165C284.638 37.7799 286.725 39.0826 288.338 42.3392C290.796 47.2981 293.845 51.9757 296.569 56.6385V38.8753H301.276V65.0464C299.796 65.0464 298.153 65.0464 296.598 65.0464C296.346 64.9883 296.109 64.8796 295.9 64.7269C295.692 64.5742 295.516 64.3808 295.385 64.1583C292.217 58.6912 289.069 53.2043 285.94 47.6977C285.556 47.0168 285.289 46.2175 284.86 45.2701V64.9724H280.537V38.5053Z" fill="#3D85C6"/>
<path d="M157.409 38.15H162.027V64.6912C160.458 64.6912 158.889 64.78 157.335 64.6912C156.92 64.6912 156.447 64.0251 156.18 63.5662C152.583 57.4823 149.016 51.3836 145.596 45.5514V64.2619H141.274V38.0612C142.902 38.0612 144.531 38.0612 146.159 38.0612C146.559 38.0612 147.032 38.5645 147.269 38.9494C150.437 44.3573 153.585 49.7849 156.713 55.2323C156.876 55.5284 157.024 55.8392 157.409 56.6385V38.15Z" fill="#3D85C6"/>
<path d="M22.1274 51.0579C21.912 48.9858 22.2206 46.8927 23.025 44.971C23.8294 43.0492 25.1038 41.3604 26.7311 40.0596C28.2756 38.7546 30.1233 37.8587 32.1044 37.4543C40.7344 36.2553 46.6258 41.0957 46.9071 49.7553C47.2169 53.2554 46.3692 56.7605 44.4943 59.7323C41.8594 63.6698 36.3972 65.1501 32.4745 64.5728C25.4876 63.507 21.8166 57.7487 22.1274 51.0579ZM41.815 50.1846C41.3556 48.4274 40.7971 46.6977 40.1423 45.0036C39.7124 43.9345 38.9754 43.0166 38.0244 42.3658C37.0733 41.7151 35.9508 41.3607 34.7985 41.3474C33.5955 41.3169 32.4093 41.6346 31.3825 42.2622C30.3558 42.8898 29.5321 43.8007 29.0107 44.8852C28.0431 46.5865 27.5002 48.4962 27.428 50.4521C27.3558 52.408 27.7566 54.3524 28.5962 56.1204C30.4169 60.0876 35.1094 62.3228 39.0913 58.2224C41.1489 56.1056 41.2081 53.3079 41.815 50.1846Z" fill="#3D85C6"/>
<path d="M263.766 65.4165C256.75 65.9494 251.598 59.6731 251.598 53.1451C251.598 49.8293 251.791 46.6023 253.626 43.7158C255.089 41.4869 257.222 39.7808 259.718 38.8441C262.214 37.9075 264.943 37.7888 267.511 38.5053C272.352 39.6451 275.534 44.2339 276.215 48.7339C276.712 51.8402 276.375 55.0227 275.238 57.956C274.416 60.2907 272.846 62.2882 270.771 63.6376C268.696 64.9869 266.233 65.6124 263.766 65.4165ZM256.957 51.8277L256.527 51.9757C256.992 53.999 257.626 55.9797 258.422 57.8968C258.866 58.7679 259.512 59.5205 260.306 60.0918C261.1 60.6631 262.018 61.0367 262.985 61.1815C263.953 61.3263 264.94 61.2381 265.866 60.9242C266.793 60.6104 267.631 60.0799 268.31 59.377C269.949 57.4098 270.912 54.9676 271.056 52.4112C271.2 49.8549 270.517 47.32 269.11 45.1813C268.679 44.4619 268.1 43.8423 267.412 43.3634C266.724 42.8845 265.941 42.5572 265.117 42.4033C264.293 42.2493 263.445 42.2722 262.631 42.4704C261.816 42.6686 261.052 43.0376 260.391 43.553C257.652 45.5365 256.898 48.5563 256.957 51.8277Z" fill="#3D85C6"/>
<path d="M221.934 64.632C220.083 64.632 217.981 65.2241 216.782 64.4543C215.583 63.6846 215.554 61.4938 215.006 60.0135C214.725 59.2586 214.429 58.5333 214.118 57.6451C211.794 57.6451 209.426 57.6451 207.072 57.6451C206.815 57.6831 206.57 57.7823 206.359 57.9342C206.148 58.0862 205.976 58.2865 205.858 58.5185C205.148 60.5316 204.555 62.5744 203.919 64.6468H198.575C199.7 61.2718 200.796 58.03 201.876 54.7734C203.534 49.7257 205.207 44.678 206.776 39.6007C207.072 38.6533 207.472 38.3721 208.36 38.4017C210.062 38.4757 212.149 37.9132 213.378 38.6977C214.606 39.4823 214.562 41.5694 215.065 43.1385C217.315 49.9477 219.546 56.757 221.756 63.5662C221.84 63.9169 221.9 64.273 221.934 64.632ZM210.195 43.4642C209.159 46.8244 208.167 49.9774 207.161 53.2635H213.156L210.195 43.4642Z" fill="#3D85C6"/>
<path d="M115.207 38.1204H120.195C120.195 41.0809 120.195 44.0415 120.195 47.002C120.108 50.1711 120.251 53.3423 120.624 56.4905C120.693 57.3549 121 58.1833 121.512 58.8832C122.024 59.5831 122.72 60.1269 123.523 60.454C124.326 60.781 125.204 60.8784 126.06 60.7353C126.915 60.5922 127.713 60.2142 128.366 59.6435C129.425 58.6022 130.121 57.2475 130.35 55.78C130.681 53.6354 130.819 51.4656 130.764 49.2964C130.764 45.6402 130.764 41.9839 130.764 38.1796H135.827V45.0332C135.827 48.2306 135.93 51.428 135.827 54.6106C135.649 58.8885 134.006 62.8112 129.343 64.3655C125.05 65.8458 119.233 65.2685 116.731 60.6204C115.898 59.2275 115.392 57.6635 115.251 56.0464C115.118 50.1402 115.207 44.2339 115.207 38.1204Z" fill="#3D85C6"/>
<path d="M306.398 59.7323C308.123 60.3794 309.901 60.8747 311.712 61.2126C313.133 61.3814 314.573 61.1346 315.857 60.502C316.372 60.2457 316.801 59.8447 317.092 59.3481C317.383 58.8515 317.523 58.2809 317.495 57.706C317.466 57.1312 317.271 56.577 316.933 56.1114C316.595 55.6458 316.128 55.2888 315.59 55.0843C313.858 54.1369 312.008 53.4264 310.246 52.553C305.613 50.2734 303.926 45.2405 307.463 41.3918C308.934 39.8768 310.846 38.8663 312.926 38.5053C315.407 38.3798 317.895 38.5738 320.327 39.0826C321.496 39.2306 321.926 39.8523 321.304 41.0513C320.971 41.8235 320.699 42.6203 320.49 43.4346C318.314 43.1533 316.33 42.7536 314.332 42.6648C313.595 42.5788 312.853 42.7601 312.239 43.1758C311.624 43.5915 311.18 44.2139 310.987 44.9296C310.897 45.2894 310.879 45.6636 310.936 46.0301C310.993 46.3966 311.122 46.7481 311.317 47.0639C311.511 47.3797 311.767 47.6534 312.068 47.8691C312.37 48.0847 312.712 48.2378 313.074 48.3194C314.258 48.7783 315.413 49.3408 316.567 49.7997C318.936 50.8803 321.289 52.0941 322.251 54.6994C322.652 55.7982 322.806 56.9719 322.702 58.1369C322.598 59.3018 322.238 60.4296 321.649 61.4399C321.06 62.4503 320.255 63.3185 319.292 63.9827C318.33 64.647 317.232 65.091 316.079 65.2833C312.806 65.9361 309.412 65.5906 306.338 64.2915C305.287 63.8622 305.08 63.5514 305.51 62.53C305.873 61.6203 306.17 60.6853 306.398 59.7323Z" fill="#3D85C6"/>
<path d="M19.9366 59.377C19.9439 59.7092 19.9736 60.0406 20.0255 60.3688C20.81 63.4182 20.81 63.6698 17.8495 64.1435C12.2541 65.0612 6.8807 64.7208 2.91359 59.8507C1.81809 58.4794 1.00436 56.9051 0.519163 55.2184C0.0339616 53.5316 -0.113151 51.7656 0.086279 50.0217C0.12041 48.2718 0.509271 46.547 1.22933 44.9516C1.94938 43.3563 2.98566 41.9237 4.27543 40.7405C6.54107 38.606 9.52639 37.4013 12.6389 37.3655C15.407 37.3655 18.1751 37.6319 21.1949 37.7948L19.8478 42.502C15.407 41.229 10.8774 40.3408 7.62083 44.6336C6.36848 46.2338 5.6338 48.1778 5.51479 50.2064C5.39577 52.2349 5.89808 54.2515 6.95471 55.9872C7.78781 57.3375 9.0039 58.4093 10.4481 59.0662C11.9294 59.7064 13.5269 60.034 15.1406 60.0283C16.7541 59.9394 18.3579 59.7216 19.9366 59.377Z" fill="#3D85C6"/>
<path d="M195.733 43.2865C193.024 42.0324 189.942 41.8474 187.103 42.7684C185.69 43.2431 184.439 44.108 183.496 45.2631C182.553 46.4182 181.956 47.8165 181.774 49.2964C181.286 52.405 181.463 55.5431 183.743 58.0596C186.022 60.576 189.279 61.0201 192.624 60.65C192.906 60.65 193.187 60.4872 193.468 60.4428C195.881 60.0727 196.725 60.8129 196.562 63.2849C196.529 63.5 196.447 63.7045 196.321 63.8819C196.195 64.0592 196.029 64.2046 195.837 64.3063C191.736 65.6681 183.343 65.7866 179.554 61.4346C177.977 59.6582 176.948 57.4627 176.593 55.1139C175.853 49.9477 176.312 45.0332 180.501 41.2438C182.577 39.4337 185.163 38.3115 187.902 38.0316C190.99 37.6162 194.132 37.9254 197.08 38.9345C196.547 40.4444 196.147 41.8655 195.733 43.2865Z" fill="#3D85C6"/>
<path d="M239.889 38.5053V42.7536H232.488V64.5728H227.159V42.7388H219.758V38.5053H239.889Z" fill="#3D85C6"/>
<path d="M167.208 38.1352H172.33V64.558H167.208V38.1352Z" fill="#3D85C6"/>
<path d="M247.602 64.9872H242.495V38.5053H247.602V64.9872Z" fill="#3D85C6"/>
</svg>
