<svg width="35" height="48" viewBox="0 0 35 48" fill="none" xmlns="http://www.w3.org/2000/svg">
<path d="M14.3043 38.8502C13.6377 36.9059 12.4177 35.1986 10.7941 33.9382L6.80295 30.8397C2.70469 27.6582 0.215989 22.8329 0 17.6491C0 8.24425 7.62414 0.620117 17.029 0.620117C26.4338 0.620117 34.058 8.24425 34.058 17.6491C33.842 22.8329 31.3533 27.6582 27.255 30.8397L23.2639 33.9382C21.6403 35.1986 20.4202 36.9059 19.7536 38.8502L19.2843 40.2194C18.9539 41.183 18.0477 41.8303 17.029 41.8303C16.0103 41.8303 15.104 41.183 14.7736 40.2194L14.3043 38.8502ZM17.029 47.6201C13.267 47.6201 10.2174 47.1627 10.2174 46.5984C10.2174 46.0341 13.267 45.5766 17.029 45.5766C20.7909 45.5766 23.8406 46.0341 23.8406 46.5984C23.8406 47.1627 20.7909 47.6201 17.029 47.6201ZM22.0485 24.0569C24.554 22.4541 26.2147 19.6478 26.2147 16.4529C26.2147 11.471 22.1762 7.43171 17.1943 7.43171C12.2123 7.43171 8.17391 11.4705 8.17391 16.4525C8.17391 19.6478 9.83492 22.4542 12.3404 24.0565L10.7662 25.9401C10.1266 26.7079 10.6724 27.8665 11.6712 27.8665H22.7164C23.7152 27.8665 24.2606 26.7074 23.6214 25.9401L22.0485 24.0569ZM17.1943 21.8373C14.2203 21.8373 11.8095 19.4264 11.8095 16.4524C11.8095 13.4785 14.2203 11.0681 17.1943 11.0681C20.1682 11.0681 22.579 13.4785 22.579 16.4524C22.5795 19.4259 20.1682 21.8373 17.1943 21.8373ZM14.5252 16.3109C14.5083 16.3069 14.4915 16.3025 14.475 16.2978C14.4643 16.4885 14.4722 16.6824 14.5032 16.8786C14.7386 18.3646 16.1344 19.3784 17.62 19.1431C19.1057 18.9078 20.1194 17.5123 19.884 16.0263C19.6486 14.5402 18.2539 13.5263 16.7679 13.7616C16.7499 13.7645 16.7319 13.7675 16.714 13.7707C16.8978 13.996 17.0264 14.2715 17.0752 14.5794C17.2223 15.5083 16.5886 16.3806 15.6597 16.5278C15.2518 16.5924 14.8547 16.5063 14.5252 16.3109Z" fill="#3D85C6"/>
</svg>
