<svg width="20" height="24" viewBox="0 0 20 24" fill="none" xmlns="http://www.w3.org/2000/svg">
<path d="M12.4169 10.408C12.5081 10.4992 12.6329 10.5473 12.7529 10.5473C12.8777 10.5473 12.9977 10.4992 13.0937 10.408C14.9898 8.512 14.9898 5.43026 13.0937 3.53421C12.9065 3.347 12.6041 3.347 12.4169 3.53421C12.2297 3.72139 12.2297 4.02381 12.4169 4.21102C13.9337 5.73267 13.9337 8.20958 12.4169 9.72643C12.2297 9.91364 12.2297 10.2209 12.4169 10.408Z" fill="#2B5F8F"/>
<path d="M14.1114 11.4257C13.9241 11.6128 13.9241 11.9153 14.1114 12.1025C14.2074 12.1985 14.3274 12.2465 14.4522 12.2465C14.5722 12.2465 14.697 12.1985 14.793 12.1025C16.161 10.7344 16.9147 8.91033 16.9147 6.97107C16.9147 5.027 16.161 3.20771 14.793 1.83487C14.601 1.64765 14.2986 1.64765 14.1114 1.83487C13.9241 2.02208 13.9241 2.3293 14.1114 2.51652C15.3018 3.70215 15.9546 5.2862 15.9546 6.97107C15.9546 8.65594 15.3018 10.2352 14.1114 11.4257Z" fill="#2B5F8F"/>
<path d="M16.4874 0.140411C16.3002 -0.0468035 15.9978 -0.0468035 15.8106 0.140411C15.6234 0.327595 15.6234 0.630009 15.8106 0.817223C19.1995 4.21096 19.1995 9.73116 15.8106 13.1249C15.6234 13.3121 15.6234 13.6145 15.8106 13.8017C15.9018 13.8929 16.0266 13.9409 16.1466 13.9409C16.2714 13.9409 16.3962 13.8929 16.4874 13.8017C20.2555 10.0336 20.2555 3.90854 16.4874 0.140411Z" fill="#2B5F8F"/>
<path d="M6.90141 3.53421C6.71422 3.347 6.407 3.347 6.21979 3.53421C4.32371 5.43026 4.32371 8.512 6.21979 10.408C6.3158 10.4992 6.4358 10.5473 6.56061 10.5473C6.68062 10.5473 6.80542 10.4992 6.90141 10.408C7.08862 10.2209 7.08862 9.91364 6.90141 9.72643C5.37976 8.20958 5.37976 5.73267 6.90141 4.21102C7.08862 4.02381 7.08862 3.72139 6.90141 3.53421Z" fill="#2B5F8F"/>
<path d="M2.8261 0.140411C-0.942033 3.90854 -0.942033 10.0336 2.8261 13.8017C2.92211 13.8929 3.04211 13.9409 3.16692 13.9409C3.28693 13.9409 3.41174 13.8929 3.50294 13.8017C3.69493 13.6145 3.69493 13.3121 3.50294 13.1249C0.114013 9.73116 0.114013 4.21096 3.50294 0.817223C3.69493 0.630009 3.69493 0.327595 3.50294 0.140411C3.31573 -0.0468036 3.01331 -0.0468035 2.8261 0.140411Z" fill="#2B5F8F"/>
<path d="M4.52533 1.83487C1.69322 4.66699 1.69322 9.27515 4.52533 12.1025C4.61654 12.1985 4.74132 12.2465 4.86132 12.2465C4.98613 12.2465 5.10614 12.1985 5.20215 12.1025C5.38936 11.9153 5.38936 11.6128 5.20215 11.4257C2.74446 8.96793 2.74446 4.9694 5.20215 2.51652C5.38936 2.3293 5.38936 2.02208 5.20215 1.83487C5.01493 1.64765 4.71252 1.64765 4.52533 1.83487Z" fill="#2B5F8F"/>
<path d="M17.2863 23.52C17.2863 23.2547 17.0716 23.04 16.8063 23.04H15.3554L10.852 9.10731C11.6041 8.68691 12.1192 7.89361 12.1192 6.97116C12.1192 5.6127 11.0151 4.50867 9.65671 4.50867C8.29825 4.50867 7.19902 5.6127 7.19902 6.97116C7.19902 7.89338 7.71165 8.68656 8.46203 9.10701L3.95887 23.04H2.50797C2.24265 23.04 2.02795 23.2547 2.02795 23.52C2.02795 23.7854 2.24265 24.0001 2.50797 24.0001H16.8063C17.0716 24.0001 17.2863 23.7854 17.2863 23.52ZM9.37577 9.40058C9.46912 9.41133 9.56047 9.42885 9.65671 9.42885C9.7531 9.42885 9.84463 9.4113 9.93815 9.40052L10.4636 11.0262L7.92412 13.892L9.37577 9.40058ZM10.8063 12.0865L12.6855 17.9003L7.56551 15.7441L10.8063 12.0865ZM7.05801 16.5718L12.2743 18.7686L5.12768 22.5444L7.05801 16.5718ZM6.24385 23.04L13.165 19.3838L14.3468 23.04H6.24385Z" fill="#2B5F8F"/>
</svg>
