<svg width="55" height="54" viewBox="0 0 55 54" fill="none" xmlns="http://www.w3.org/2000/svg">
<path d="M1.58456 52.8065V30.936L14.0552 36.5488L14.25 30.936L26.9154 36.7423V52.6129" stroke="#3D85C6" stroke-width="1.5" stroke-linecap="round" stroke-linejoin="round"/>
<path d="M14.25 30.936L14.0551 53" stroke="#3D85C6" stroke-width="1.5" stroke-linecap="round" stroke-linejoin="round"/>
<path d="M54 53.0002L1 52.8066" stroke="#3D85C6" stroke-width="1.5" stroke-linecap="round" stroke-linejoin="round"/>
<path d="M54 52.9999L51.4669 36.7422H26.9154V52.6128" stroke="#3D85C6" stroke-width="1.5" stroke-linecap="round" stroke-linejoin="round"/>
<path fill-rule="evenodd" clip-rule="evenodd" d="M36.0735 39.8389V48.9354H33.5404V39.8389H36.0735Z" fill="#3D85C6"/>
<path fill-rule="evenodd" clip-rule="evenodd" d="M31.9816 39.8389V48.9354H29.4485V39.8389H31.9816Z" fill="#3D85C6"/>
<path fill-rule="evenodd" clip-rule="evenodd" d="M9.57353 38.2905V41.7743H6.06618V38.2905H9.57353Z" fill="#3D85C6"/>
<path fill-rule="evenodd" clip-rule="evenodd" d="M18.7316 41.7743V38.2905H22.239V41.7743H18.7316Z" fill="#3D85C6"/>
<path fill-rule="evenodd" clip-rule="evenodd" d="M29.2537 36.7425V29.5814C29.2537 28.8072 29.8382 28.2266 30.6176 28.2266H34.7096C35.8787 28.2266 36.6581 29.0007 36.6581 29.9685V36.7425H29.2537Z" fill="#3D85C6"/>
<path fill-rule="evenodd" clip-rule="evenodd" d="M40.178 9.89963C35.2887 14.3773 32.5494 10.697 32.5494 10.697L34.1325 9.40578C27.5005 14.7564 25.3499 8.53962 24.6846 8.64168C23.7194 8.92951 21.9962 10.8247 19.1826 8.01786C16.2471 5.18314 19.618 0.612247 19.618 0.612247C18.6196 7.1257 23.3041 4.63652 23.3041 4.63652C30.9659 -2.38648 32.6107 4.35059 32.6107 4.35059C36.3666 0.885534 38.516 5.44839 38.516 5.44839C43.4831 5.05926 44.9952 9.60338 44.9952 9.60338C41.1883 7.20518 40.178 9.89963 40.178 9.89963Z" fill="#3D85C6"/>
<path fill-rule="evenodd" clip-rule="evenodd" d="M41.1397 36.7423L42.5037 11.9688L48.739 12.1623L50.1029 36.7423H41.1397Z" fill="#3D85C6"/>
<path fill-rule="evenodd" clip-rule="evenodd" d="M42.6985 45.0645H48.1544V52.9997H42.6985V45.0645Z" fill="#3D85C6"/>
<path fill-rule="evenodd" clip-rule="evenodd" d="M22.6287 46.2261V52.8066H18.3419V46.2261H22.6287Z" fill="#3D85C6"/>
<path fill-rule="evenodd" clip-rule="evenodd" d="M9.96323 46.2261V52.8066H5.67647V46.2261H9.96323Z" fill="#3D85C6"/>
</svg>
