<svg width="20" height="24" viewBox="0 0 20 24" fill="none" xmlns="http://www.w3.org/2000/svg">
<path d="M18.7144 5.99368L13.4036 0.657534C12.9737 0.227608 12.4173 0 11.8103 0H2.25079C1.64384 0 1.08746 0.227608 0.657534 0.657534C0.227608 1.08746 0 1.64384 0 2.25079V21.7492C0 22.9884 1.01159 24 2.25079 24H17.1465C18.3857 24 19.3973 22.9884 19.3973 21.7492V7.58693C19.3973 6.97998 19.1444 6.4236 18.7144 5.99368ZM12.5943 2.65543L16.7418 6.80295H13.0242C12.7713 6.80295 12.5943 6.60063 12.5943 6.37302V2.65543ZM17.1212 22.0527H2.25079C2.09905 22.0527 1.9726 21.9262 1.9726 21.7745V2.25079C1.9726 2.14963 2.02318 2.07376 2.04847 2.04847C2.09905 1.99789 2.14963 1.9726 2.25079 1.9726H10.6217V6.37302C10.6217 7.71338 11.7092 8.77555 13.0242 8.77555H17.3994V21.7745C17.4247 21.9262 17.2982 22.0527 17.1212 22.0527Z" fill="#2B5F8F"/>
<path d="M12.215 13.96H9.86303C9.78716 13.96 9.71129 13.8841 9.71129 13.8083V11.4563C9.71129 11.3552 9.63542 11.2793 9.53426 11.3046C8.11803 11.3805 7.00528 12.5691 7.03057 13.9853C7.03057 15.4521 8.29506 16.666 9.73658 16.666C11.1528 16.6407 12.2908 15.5533 12.392 14.1623C12.3667 14.0359 12.2908 13.96 12.215 13.96Z" fill="#2B5F8F"/>
<path d="M10.6975 13.0748H13.0495C13.1506 13.0748 13.2265 12.9989 13.2012 12.8977C13.1254 11.5574 12.0379 10.4699 10.6975 10.394C10.5964 10.394 10.5205 10.4699 10.5205 10.5458V12.8977C10.5458 13.0242 10.6217 13.0748 10.6975 13.0748Z" fill="#2B5F8F"/>
<path d="M6.67648 18.2086H4.47627C4.27395 18.2086 4.09692 18.3856 4.09692 18.588V19.7766C4.09692 19.9789 4.27395 20.1559 4.47627 20.1559H6.67648C6.8788 20.1559 7.05583 19.9789 7.05583 19.7766V18.588C7.05583 18.3856 6.8788 18.2086 6.67648 18.2086Z" fill="#2B5F8F"/>
<path d="M10.7988 18.2086H8.59858C8.39627 18.2086 8.21924 18.3856 8.21924 18.588V19.7766C8.21924 19.9789 8.39627 20.1559 8.59858 20.1559H10.7988C11.0011 20.1559 11.1781 19.9789 11.1781 19.7766V18.588C11.1781 18.3856 11.0011 18.2086 10.7988 18.2086Z" fill="#2B5F8F"/>
<path d="M14.921 18.2086H12.7208C12.5185 18.2086 12.3414 18.3856 12.3414 18.588V19.7766C12.3414 19.9789 12.5185 20.1559 12.7208 20.1559H14.921C15.1233 20.1559 15.3003 19.9789 15.3003 19.7766V18.588C15.3003 18.3856 15.1233 18.2086 14.921 18.2086Z" fill="#2B5F8F"/>
</svg>
