<svg width="45" height="45" viewBox="0 0 45 45" fill="none" xmlns="http://www.w3.org/2000/svg">
<path d="M22.0951 9.28564C17.1128 9.28564 13.0612 13.2974 13.0612 18.2307C13.0612 21.7545 17.6603 30.1032 20.2883 34.6571C21.1096 36.0666 23.1353 36.0666 23.9566 34.6571C26.5846 30.1032 31.1837 21.7545 31.1837 18.2307C31.1289 13.2974 27.0774 9.28564 22.0951 9.28564ZM22.0951 22.4051C19.7955 22.4051 17.8793 20.5618 17.8793 18.2307C17.8793 15.9538 19.7408 14.0563 22.0951 14.0563C24.3946 14.0563 26.3109 15.8996 26.3109 18.2307C26.3109 20.5618 24.3946 22.4051 22.0951 22.4051Z" fill="#3D85C6"/>
<path d="M22.5 0.984863C10.6649 0.984863 0.984695 10.665 0.984695 22.5002C0.984695 34.3353 10.6649 44.0155 22.5 44.0155C34.3351 44.0155 44.0153 34.3353 44.0153 22.5002C44.0153 10.665 34.3351 0.984863 22.5 0.984863ZM22.5 6.63792C25.7807 6.63792 28.8923 7.64266 31.5311 9.50125L9.50108 31.5313C7.6425 28.8925 6.63776 25.7808 6.63776 22.5002C6.63776 13.7776 13.7775 6.63792 22.5 6.63792ZM22.5 38.3624C19.2193 38.3624 16.1077 37.3577 13.4689 35.4991L35.4989 13.469C37.3575 16.1078 38.3622 19.2195 38.3622 22.5002C38.3622 31.2227 31.2225 38.3624 22.5 38.3624Z" fill="#3D85C6" stroke="white" stroke-width="1.5"/>
</svg>
