<svg width="24" height="18" viewBox="0 0 24 18" fill="none" xmlns="http://www.w3.org/2000/svg">
<path d="M6.24884 9.70671C6.86217 9.42227 7.28884 8.80894 7.28884 8.08894C7.28884 7.11116 6.48884 6.31116 5.51106 6.31116C4.53328 6.31116 3.73328 7.11116 3.73328 8.08894C3.73328 8.81782 4.17773 9.44893 4.80884 9.72449C3.87551 10.0356 3.19995 10.9156 3.19995 11.9556V14.3112H7.91106V11.9556C7.91106 10.8978 7.20884 10 6.24884 9.70671Z" fill="#2B5F8F"/>
<path d="M16.1778 7.91115H10.4889C10.1956 7.91115 9.95557 7.67115 9.95557 7.37782C9.95557 7.08448 10.1956 6.84448 10.4889 6.84448H16.1778C16.4711 6.84448 16.7111 7.08448 16.7111 7.37782C16.7111 7.67115 16.4711 7.91115 16.1778 7.91115Z" fill="#2B5F8F"/>
<path d="M20.8 10.8445H10.4889C10.1956 10.8445 9.95557 10.6045 9.95557 10.3112C9.95557 10.0178 10.1956 9.77783 10.4889 9.77783H20.8C21.0933 9.77783 21.3333 10.0178 21.3333 10.3112C21.3333 10.6045 21.0933 10.8445 20.8 10.8445Z" fill="#2B5F8F"/>
<path d="M20.8 13.7778H10.4889C10.1956 13.7778 9.95557 13.5378 9.95557 13.2445C9.95557 12.9512 10.1956 12.7112 10.4889 12.7112H20.8C21.0933 12.7112 21.3333 12.9512 21.3333 13.2445C21.3333 13.5378 21.0933 13.7778 20.8 13.7778Z" fill="#2B5F8F"/>
<path d="M22.5244 2.48889H15.2889V1.35111C15.2889 0.604444 14.6844 0 13.9378 0H10.16C9.41333 0 8.80889 0.604444 8.80889 1.35111V2.48889H1.47556C0.657778 2.48889 0 3.14667 0 3.96444V15.7689C0 16.5867 0.657778 17.2444 1.47556 17.2444H22.5244C23.3422 17.2444 24 16.5867 24 15.7689V3.96444C24 3.14667 23.3422 2.48889 22.5244 2.48889ZM9.86667 1.35111C9.86667 1.19111 9.99111 1.06667 10.1511 1.06667H13.9289C14.0889 1.06667 14.2133 1.19111 14.2133 1.35111V3.61778C14.2133 3.77778 14.0889 3.90222 13.9289 3.90222H10.1511C9.99111 3.90222 9.86667 3.77778 9.86667 3.61778V1.35111ZM22.9333 15.7689C22.9333 15.9911 22.7467 16.1778 22.5244 16.1778H1.47556C1.25333 16.1778 1.06667 15.9911 1.06667 15.7689V3.96444C1.06667 3.74222 1.25333 3.55556 1.47556 3.55556H8.8V3.62667C8.8 4.37333 9.40444 4.97778 10.1511 4.97778H13.9289C14.6756 4.97778 15.28 4.37333 15.28 3.62667V3.55556H22.5156C22.7378 3.55556 22.9244 3.74222 22.9244 3.96444V15.7689H22.9333Z" fill="#2B5F8F"/>
</svg>
