<svg width="60" height="53" viewBox="0 0 60 53" fill="none" xmlns="http://www.w3.org/2000/svg">
<path d="M50.1099 17.9075C49.8452 17.8893 49.573 17.8775 49.2892 17.8775C41.0774 17.8775 34.4142 24.5407 34.4142 32.7525C34.4142 34.0198 34.4733 36.8661 38.3826 44.8741H1.26042C1.13584 44.8741 1.06462 44.8291 1.03363 44.7982C1.00617 44.7707 0.997357 44.7453 1.00066 44.709L1.00302 44.683L1.00403 44.6569C1.0814 42.6451 1.24217 38.4354 1.43495 33.3875C1.86695 22.0752 2.45973 6.5532 2.63508 2.12306C2.64925 2.00919 2.69244 1.94628 2.72364 1.91619C2.7526 1.88826 2.80022 1.85889 2.89277 1.85889H10.5523C10.6906 1.85889 10.8079 1.97622 10.8079 2.11454V14.106V15.9135L12.3392 14.9532L23.4297 7.99817C23.5599 7.92895 23.6734 7.94525 23.7469 7.98506C23.7862 8.00632 23.8144 8.03434 23.8327 8.06437C23.8495 8.09191 23.8667 8.13493 23.8667 8.20447V14.106V15.9103L25.3967 14.954L36.4252 8.06122C36.5556 7.99169 36.6694 8.00798 36.7429 8.04784C36.7822 8.06911 36.8104 8.09712 36.8287 8.12716C36.8456 8.1547 36.8628 8.19772 36.8628 8.26725V14.2316V16.0401L38.3944 15.0785L49.673 7.9981C49.8032 7.92896 49.9166 7.94526 49.9901 7.98506C50.0294 8.00632 50.0576 8.03434 50.0759 8.06437C50.0927 8.09191 50.1099 8.13493 50.1099 8.20447V17.9075ZM16.0144 39.4657C17.0689 39.4657 17.9561 38.5786 17.9561 37.524V32.9409C17.9561 31.8863 17.0689 30.9991 16.0144 30.9991H11.4312C10.2706 30.9991 9.48948 31.9307 9.48948 32.9409V37.524C9.48948 38.5786 10.3767 39.4657 11.4312 39.4657H16.0144ZM16.0144 28.3532C17.0689 28.3532 17.9561 27.466 17.9561 26.4115V21.8283C17.9561 20.7738 17.0689 19.8866 16.0144 19.8866H11.4312C10.2706 19.8866 9.48948 20.8181 9.48948 21.8283V26.4115C9.48948 27.5721 10.421 28.3532 11.4312 28.3532H16.0144ZM28.9476 39.4657C30.0021 39.4657 30.8893 38.5786 30.8893 37.524V32.9409C30.8893 31.8863 30.0022 30.9991 28.9476 30.9991H24.3645C23.3099 30.9991 22.4227 31.8863 22.4227 32.9409V37.524C22.4227 38.5786 23.3099 39.4657 24.3645 39.4657H28.9476ZM28.9476 28.3532C30.0021 28.3532 30.8893 27.466 30.8893 26.4115V21.8283C30.8893 20.7738 30.0022 19.8866 28.9476 19.8866H24.3645C23.3099 19.8866 22.4227 20.7738 22.4227 21.8283V26.4115C22.4227 27.5721 23.3543 28.3532 24.3645 28.3532H28.9476Z" stroke="#3D85C6" stroke-width="2"/>
<path d="M49.2892 22.3936C43.576 22.3936 38.9301 27.0395 38.9301 32.7527C38.9301 36.8336 44.2038 46.5021 47.2174 51.7759C48.1591 53.4082 50.4821 53.4082 51.4238 51.7759C54.4374 46.5021 59.7112 36.8336 59.7112 32.7527C59.6484 27.0395 55.0024 22.3936 49.2892 22.3936ZM49.2892 37.587C46.6523 37.587 44.455 35.4524 44.455 32.7527C44.455 30.1158 46.5896 27.9184 49.2892 27.9184C51.9261 27.9184 54.1235 30.053 54.1235 32.7527C54.1235 35.4524 51.9261 37.587 49.2892 37.587Z" fill="#3D85C6"/>
</svg>
