<svg width="20" height="24" viewBox="0 0 20 24" fill="none" xmlns="http://www.w3.org/2000/svg">
<path d="M9.59197 0C4.12797 0 0.711967 5.904 3.43997 10.64L9.59197 21.28L15.744 10.64C18.472 5.904 15.048 0 9.59197 0ZM9.59197 10.216C8.01597 10.216 6.73597 8.936 6.73597 7.36C6.73597 5.784 8.01597 4.504 9.59197 4.504C11.168 4.504 12.448 5.784 12.448 7.36C12.448 8.936 11.168 10.216 9.59197 10.216Z" fill="#2B5F8F"/>
<path d="M19.184 24H0L2.416 14.808H4.992V15.672H3.08L1.12 23.136H18.064L16.104 15.672H14.192V14.808H16.768L19.184 24Z" fill="#2B5F8F"/>
</svg>
