<svg width="32" height="19" viewBox="0 0 32 19" fill="none" xmlns="http://www.w3.org/2000/svg">
<path d="M15.0589 8.44406C13.173 8.01207 11.7652 6.30951 11.7652 4.275C11.7652 1.91398 13.6612 0 16 0C18.3388 0 20.2348 1.91398 20.2348 4.275C20.2348 6.30951 18.827 8.01207 16.9411 8.44406V13.3C16.9411 13.8247 16.5197 14.25 16 14.25C15.4803 14.25 15.0589 13.8247 15.0589 13.3V8.44406ZM16 6.65C17.2993 6.65 18.3527 5.58668 18.3527 4.275C18.3527 2.96332 17.2993 1.9 16 1.9C14.7007 1.9 13.6473 2.96332 13.6473 4.275C13.6473 5.58668 14.7007 6.65 16 6.65ZM13.6473 10.45V13.3C13.6473 14.6117 14.7007 15.675 16 15.675C17.2993 15.675 18.3527 14.6117 18.3527 13.3V10.45H24.4696C24.7192 10.45 24.9585 10.5501 25.135 10.7282L31.7225 17.3782C32.3153 17.9767 31.8954 19 31.057 19H0.942953C0.104553 19 -0.31532 17.9767 0.277518 17.3782L6.86498 10.7282C7.04146 10.5501 7.28083 10.45 7.53041 10.45H13.6473ZM16 5.225C15.4803 5.225 15.0589 4.79967 15.0589 4.275C15.0589 3.75033 15.4803 3.325 16 3.325C16.5197 3.325 16.9411 3.75033 16.9411 4.275C16.9411 4.79967 16.5197 5.225 16 5.225Z" fill="#3D85C6"/>
<path d="M9.25963 0.291116C9.45642 0.0924144 9.75162 0.0924144 9.94841 0.291116C10.1452 0.489818 10.1452 0.787871 9.94841 0.986573C8.22646 2.72521 8.22646 5.60639 9.94841 7.34503C10.1452 7.54373 10.1452 7.84179 9.94841 8.04049C9.75162 8.23919 9.45642 8.23919 9.25963 8.04049C7.14409 5.90444 7.14409 2.42716 9.25963 0.291116Z" fill="#3D85C6"/>
<path d="M10.3912 1.83116C10.588 1.63245 10.9324 1.63245 11.1292 1.83116C11.2768 2.02986 11.2768 2.32791 11.1292 2.52661C10.1944 3.42077 10.1944 4.91103 11.1292 5.80519C11.2768 6.0039 11.2768 6.30195 11.1292 6.50065C10.9324 6.69935 10.588 6.69935 10.3912 6.50065C9.11203 5.20909 9.11203 3.12272 10.3912 1.83116Z" fill="#3D85C6"/>
<path d="M22.278 0.986573C22.0812 0.787871 22.0812 0.489818 22.278 0.291116C22.4748 0.0924144 22.77 0.0924144 22.9668 0.291116C25.0824 2.42716 25.0824 5.90444 22.9668 8.04049C22.77 8.23919 22.4748 8.23919 22.278 8.04049C22.0812 7.84179 22.0812 7.54373 22.278 7.34503C24 5.60639 24 2.72521 22.278 0.986573Z" fill="#3D85C6"/>
<path d="M21.1465 2.52661C20.9497 2.32791 20.9497 2.02986 21.1465 1.83116C21.3433 1.63245 21.6385 1.63245 21.8353 1.83116C23.1144 3.12272 23.1144 5.20909 21.8353 6.50065C21.6385 6.69935 21.3433 6.69935 21.1465 6.50065C20.9497 6.30195 20.9497 6.0039 21.1465 5.80519C22.0321 4.91103 22.0321 3.42077 21.1465 2.52661Z" fill="#3D85C6"/>
</svg>
